<svg xmlns="http://www.w3.org/2000/svg" xmlns:xlink="http://www.w3.org/1999/xlink" viewBox="0 0 64 64"><defs><style>.cls-1{fill:url(#linear-gradient);}.cls-2{fill:url(#linear-gradient-2);}.cls-3{fill:url(#linear-gradient-3);}.cls-4{fill:url(#linear-gradient-4);}.cls-5{fill:url(#linear-gradient-5);}.cls-6{fill:url(#linear-gradient-6);}.cls-7{fill:url(#linear-gradient-7);}.cls-8{fill:url(#linear-gradient-8);}.cls-9{fill:url(#linear-gradient-9);}.cls-10{fill:url(#linear-gradient-10);}.cls-11{fill:url(#linear-gradient-11);}.cls-12{fill:url(#linear-gradient-12);}.cls-13{fill:url(#linear-gradient-13);}.cls-14{fill:url(#linear-gradient-14);}</style><linearGradient id="linear-gradient" x1="8" y1="29.5" x2="18" y2="29.5" gradientUnits="userSpaceOnUse"><stop offset="0" stop-color="#7bc7e9"/><stop offset="1" stop-color="#3c6db0"/></linearGradient><linearGradient id="linear-gradient-2" x1="55" y1="34.5" x2="8.12" y2="34.5" gradientUnits="userSpaceOnUse"><stop offset="0" stop-color="#3c6db0"/><stop offset="1" stop-color="#291f51"/></linearGradient><linearGradient id="linear-gradient-3" x1="26.67" y1="33.1" x2="39.48" y2="43.41" gradientUnits="userSpaceOnUse"><stop offset="0" stop-color="#f9f9df"/><stop offset="1" stop-color="#b6bdc6"/></linearGradient><linearGradient id="linear-gradient-4" x1="24" y1="28.5" x2="44" y2="28.5" gradientUnits="userSpaceOnUse"><stop offset="0" stop-color="#f0cb49"/><stop offset="1" stop-color="#e17e43"/></linearGradient><linearGradient id="linear-gradient-5" x1="23" y1="50" x2="45" y2="50" gradientUnits="userSpaceOnUse"><stop offset="0" stop-color="#e17e43"/><stop offset="1" stop-color="#85152e"/></linearGradient><linearGradient id="linear-gradient-6" x2="25" xlink:href="#linear-gradient-5"/><linearGradient id="linear-gradient-7" x1="43" xlink:href="#linear-gradient-5"/><linearGradient id="linear-gradient-8" x1="27.58" y1="50" x2="49.58" y2="50" xlink:href="#linear-gradient"/><linearGradient id="linear-gradient-9" x1="48" y1="34.5" x2="50" y2="34.5" xlink:href="#linear-gradient-5"/><linearGradient id="linear-gradient-10" x1="47" y1="45" x2="51" y2="45" xlink:href="#linear-gradient-5"/><linearGradient id="linear-gradient-11" x1="47" y1="24" x2="51" y2="24" xlink:href="#linear-gradient-5"/><linearGradient id="linear-gradient-12" x1="49" y1="26.31" x2="49" y2="48.63" xlink:href="#linear-gradient"/><linearGradient id="linear-gradient-13" x1="21" y1="18" x2="29" y2="18" xlink:href="#linear-gradient"/><linearGradient id="linear-gradient-14" x1="21" y1="23" x2="29" y2="23" xlink:href="#linear-gradient"/></defs><title>blueprint</title><g id="blueprint"><path class="cls-1" d="M18,13V51A5,5,0,1,0,8,51V13a5,5,0,1,1,10,0Z"/><path class="cls-2" d="M56,13V56H13a5,5,0,1,1,5-5V13Z"/><rect class="cls-3" x="26" y="33" width="16" height="12"/><polygon class="cls-4" points="34 24 24 33 44 33 34 24"/><rect class="cls-5" x="23" y="49" width="22" height="2"/><rect class="cls-6" x="23" y="48" width="2" height="4"/><rect class="cls-7" x="43" y="48" width="2" height="4"/><path class="cls-8" d="M43,48v1H25V48H23v4h2V51H43v1h2V48Z"/><rect class="cls-9" x="48" y="23" width="2" height="23"/><rect class="cls-10" x="47" y="44" width="4" height="2"/><rect class="cls-11" x="47" y="23" width="4" height="2"/><path class="cls-12" d="M51,25V23H47v2h1V44H47v2h4V44H50V25Z"/><rect class="cls-13" x="21" y="17" width="8" height="2"/><rect class="cls-14" x="21" y="22" width="8" height="2"/></g></svg>