<svg xmlns="http://www.w3.org/2000/svg" xmlns:xlink="http://www.w3.org/1999/xlink" viewBox="0 0 64 64"><defs><style>.cls-1{fill:url(#linear-gradient);}.cls-2{fill:url(#linear-gradient-2);}.cls-3{fill:url(#linear-gradient-3);}.cls-4{fill:url(#linear-gradient-4);}.cls-5{fill:#231f20;}.cls-6{fill:url(#linear-gradient-5);}.cls-7{fill:url(#linear-gradient-6);}.cls-8{fill:url(#linear-gradient-7);}.cls-9{fill:url(#linear-gradient-8);}.cls-10{fill:url(#linear-gradient-9);}.cls-11{fill:url(#linear-gradient-10);}.cls-12{fill:url(#linear-gradient-11);}.cls-13{fill:url(#linear-gradient-12);}.cls-14{fill:url(#linear-gradient-13);}.cls-15{fill:url(#linear-gradient-14);}</style><linearGradient id="linear-gradient" x1="14" y1="34.5" x2="18" y2="34.5" gradientUnits="userSpaceOnUse"><stop offset="0" stop-color="#f0cb49"/><stop offset="1" stop-color="#e17e43"/></linearGradient><linearGradient id="linear-gradient-2" x1="34" y1="47" x2="51" y2="47" gradientUnits="userSpaceOnUse"><stop offset="0" stop-color="#7bc7e9"/><stop offset="1" stop-color="#3c6db0"/></linearGradient><linearGradient id="linear-gradient-3" x1="45.22" y1="20.98" x2="53" y2="20.98" xlink:href="#linear-gradient-2"/><linearGradient id="linear-gradient-4" x1="11" y1="20.98" x2="18.77" y2="20.98" xlink:href="#linear-gradient-2"/><linearGradient id="linear-gradient-5" x1="24.8" y1="12.24" x2="26.02" y2="12.24" xlink:href="#linear-gradient"/><linearGradient id="linear-gradient-6" x1="16.34" y1="11.78" x2="47.64" y2="11.78" xlink:href="#linear-gradient"/><linearGradient id="linear-gradient-7" x1="49.63" x2="46.04" xlink:href="#linear-gradient"/><linearGradient id="linear-gradient-8" x1="24.42" y1="31.67" x2="36.21" y2="39.96" gradientUnits="userSpaceOnUse"><stop offset="0" stop-color="#f9f9df"/><stop offset="1" stop-color="#b6bdc6"/></linearGradient><linearGradient id="linear-gradient-9" x1="21" y1="26.5" x2="43" y2="26.5" gradientUnits="userSpaceOnUse"><stop offset="0" stop-color="#e17e43"/><stop offset="1" stop-color="#85152e"/></linearGradient><linearGradient id="linear-gradient-10" x1="30.45" y1="36.15" x2="33.11" y2="41.9" gradientUnits="userSpaceOnUse"><stop offset="0" stop-color="#3c6db0"/><stop offset="1" stop-color="#291f51"/></linearGradient><linearGradient id="linear-gradient-11" x1="22" y1="43" x2="42" y2="43" xlink:href="#linear-gradient-10"/><linearGradient id="linear-gradient-12" x1="29" y1="54" x2="35" y2="54" xlink:href="#linear-gradient-10"/><linearGradient id="linear-gradient-13" x1="8" y1="34.5" x2="14" y2="34.5" xlink:href="#linear-gradient-10"/><linearGradient id="linear-gradient-14" x1="55.92" y1="34.5" x2="49.88" y2="34.5" gradientTransform="translate(106 69) rotate(-180)" xlink:href="#linear-gradient-10"/></defs><title>call center</title><g id="call_center" data-name="call center"><path class="cls-1" d="M14,41V28a2,2,0,0,1,4,0V41A2,2,0,0,1,14,41Z"/><path class="cls-2" d="M37,57H34V55h3A12,12,0,0,0,49,43V37h2v6A14,14,0,0,1,37,57Z"/><path class="cls-3" d="M53,29H51c0-5.51-1.11-9.67-5.78-14.68L46.68,13C50.7,17.27,53,21.55,53,29Z"/><path class="cls-4" d="M13,29H11c0-5.93,1.25-10.61,6.31-16l1.46,1.36C15.05,18.32,13,22.12,13,29Z"/><path class="cls-5" d="M36.38,11.53c.09,0,.48.12.58.16C36.76,11.62,36.57,11.58,36.38,11.53Zm-.22,2a3.92,3.92,0,0,0-.52-.13Z"/><path class="cls-6" d="M24.8,12.48c.43-.18.62-.26,1.22-.48A10.7,10.7,0,0,0,24.8,12.48Z"/><path class="cls-7" d="M47.35,13.68c-9.23-9.36-22.93-8.44-30.73,0-1.21,1.34,1.74,2.87,3.61,2.87,3.24,0,4.22-3.19,11-3.54A15.93,15.93,0,0,1,41,15.75C44.23,17.89,48.84,15.21,47.35,13.68Zm-22-1.44c-1.28.51-.14,0,.64-.24Zm11.33-.62c-.27-.1-.55-.13-.08,0S37,11.7,36.71,11.62Z"/><path class="cls-8" d="M50,28V41a2,2,0,0,1-4,0V28A2,2,0,0,1,50,28Z"/><rect class="cls-9" x="24" y="31" width="16" height="12"/><polygon class="cls-10" points="32 22 21 31 43 31 32 22"/><rect class="cls-11" x="30" y="36" width="4" height="7"/><rect class="cls-12" x="22" y="42" width="20" height="2"/><path class="cls-13" d="M35,57H32a3,3,0,1,1,3-3Z"/><path class="cls-14" d="M11,28h3a0,0,0,0,1,0,0V41a0,0,0,0,1,0,0H11a3,3,0,0,1-3-3V31A3,3,0,0,1,11,28Z"/><path class="cls-15" d="M53,28h3a0,0,0,0,1,0,0V41a0,0,0,0,1,0,0H53a3,3,0,0,1-3-3V31A3,3,0,0,1,53,28Z" transform="translate(106 69) rotate(180)"/></g></svg>