<svg xmlns="http://www.w3.org/2000/svg" xmlns:xlink="http://www.w3.org/1999/xlink" viewBox="0 0 64 64"><defs><style>.cls-1{fill:url(#linear-gradient);}.cls-2{fill:url(#linear-gradient-2);}.cls-3{fill:url(#linear-gradient-3);}.cls-4{fill:url(#linear-gradient-4);}.cls-5{fill:url(#linear-gradient-5);}.cls-6{fill:url(#linear-gradient-6);}</style><linearGradient id="linear-gradient" x1="5" y1="14" x2="59" y2="14" gradientUnits="userSpaceOnUse"><stop offset="0" stop-color="#3c6db0"/><stop offset="1" stop-color="#291f51"/></linearGradient><linearGradient id="linear-gradient-2" x1="8" y1="19.98" x2="56" y2="19.98" gradientUnits="userSpaceOnUse"><stop offset="0" stop-color="#f0cb49"/><stop offset="1" stop-color="#e17e43"/></linearGradient><linearGradient id="linear-gradient-3" x1="14" y1="38" x2="50" y2="38" gradientUnits="userSpaceOnUse"><stop offset="0" stop-color="#f9f9df"/><stop offset="1" stop-color="#b6bdc6"/></linearGradient><linearGradient id="linear-gradient-4" x1="22" y1="38" x2="42" y2="38" xlink:href="#linear-gradient"/><linearGradient id="linear-gradient-5" x1="26" y1="38" x2="38" y2="38" gradientUnits="userSpaceOnUse"><stop offset="0" stop-color="#7bc7e9"/><stop offset="1" stop-color="#3c6db0"/></linearGradient><linearGradient id="linear-gradient-6" x1="42" y1="28" x2="46" y2="28" xlink:href="#linear-gradient-2"/></defs><title>cctv</title><g id="cctv"><rect class="cls-1" x="5" y="11" width="54" height="6"/><path class="cls-2" d="M50,23H14a6,6,0,0,1-6-6c0-.1-1.32,0,48,0A6,6,0,0,1,50,23Z"/><path class="cls-3" d="M32,53A18,18,0,0,1,14,35V23H50V35A18,18,0,0,1,32,53Z"/><circle class="cls-4" cx="32" cy="38" r="10"/><circle class="cls-5" cx="32" cy="38" r="6"/><circle class="cls-6" cx="44" cy="28" r="2"/></g></svg>