<svg xmlns="http://www.w3.org/2000/svg" xmlns:xlink="http://www.w3.org/1999/xlink" viewBox="0 0 64 64"><defs><style>.cls-1{fill:url(#linear-gradient);}.cls-2{fill:url(#linear-gradient-2);}.cls-3{fill:url(#linear-gradient-3);}.cls-4{fill:url(#linear-gradient-4);}.cls-5{fill:url(#linear-gradient-5);}.cls-6{fill:url(#linear-gradient-6);}.cls-7{fill:url(#linear-gradient-7);}.cls-8{fill:url(#linear-gradient-8);}.cls-9{fill:url(#linear-gradient-9);}.cls-10{fill:url(#linear-gradient-10);}.cls-11{fill:url(#linear-gradient-11);}.cls-12{fill:url(#linear-gradient-12);}.cls-13{fill:url(#linear-gradient-13);}.cls-14{fill:url(#linear-gradient-14);}.cls-15{fill:url(#linear-gradient-15);}.cls-16{fill:url(#linear-gradient-16);}.cls-17{fill:url(#linear-gradient-17);}.cls-18{fill:url(#linear-gradient-18);}.cls-19{fill:url(#linear-gradient-19);}</style><linearGradient id="linear-gradient" x1="34" y1="39" x2="44" y2="39" gradientUnits="userSpaceOnUse"><stop offset="0" stop-color="#f0cb49"/><stop offset="1" stop-color="#e17e43"/></linearGradient><linearGradient id="linear-gradient-2" x1="44" y1="33" x2="54" y2="33" xlink:href="#linear-gradient"/><linearGradient id="linear-gradient-3" x1="33.21" y1="34" x2="34.67" y2="42.33" xlink:href="#linear-gradient"/><linearGradient id="linear-gradient-4" x1="43.47" y1="29.65" x2="44.34" y2="40.11" xlink:href="#linear-gradient"/><linearGradient id="linear-gradient-5" x1="53.64" y1="27.54" x2="54.26" y2="35.21" xlink:href="#linear-gradient"/><linearGradient id="linear-gradient-6" x1="38.53" y1="36.84" x2="39.49" y2="42.26" xlink:href="#linear-gradient"/><linearGradient id="linear-gradient-7" x1="48.52" y1="30.39" x2="49.35" y2="35.8" xlink:href="#linear-gradient"/><linearGradient id="linear-gradient-8" x1="32" y1="23" x2="34" y2="23" gradientUnits="userSpaceOnUse"><stop offset="0" stop-color="#3c6db0"/><stop offset="1" stop-color="#291f51"/></linearGradient><linearGradient id="linear-gradient-9" x1="14" y1="11" x2="21.94" y2="11" gradientUnits="userSpaceOnUse"><stop offset="0" stop-color="#7bc7e9"/><stop offset="1" stop-color="#3c6db0"/></linearGradient><linearGradient id="linear-gradient-10" y1="35" x2="22" y2="35" xlink:href="#linear-gradient-9"/><linearGradient id="linear-gradient-11" y1="46.99" x2="22.01" y2="46.99" xlink:href="#linear-gradient-9"/><linearGradient id="linear-gradient-12" x1="13.99" y1="40.99" x2="22" y2="40.99" xlink:href="#linear-gradient-9"/><linearGradient id="linear-gradient-13" y1="34.99" x2="22.01" y2="34.99" xlink:href="#linear-gradient-9"/><linearGradient id="linear-gradient-14" y1="22.99" x2="22.01" y2="22.99" xlink:href="#linear-gradient-9"/><linearGradient id="linear-gradient-15" x1="13.99" y1="28.99" x2="22" y2="28.99" xlink:href="#linear-gradient-9"/><linearGradient id="linear-gradient-16" x1="8" y1="16.5" x2="53" y2="16.5" gradientUnits="userSpaceOnUse"><stop offset="0" stop-color="#e17e43"/><stop offset="1" stop-color="#85152e"/></linearGradient><linearGradient id="linear-gradient-17" x1="39.85" y1="42.35" x2="51.42" y2="53.92" gradientUnits="userSpaceOnUse"><stop offset="0" stop-color="#f9f9df"/><stop offset="1" stop-color="#b6bdc6"/></linearGradient><linearGradient id="linear-gradient-18" x1="26" y1="29" x2="40" y2="29" xlink:href="#linear-gradient"/><linearGradient id="linear-gradient-19" x1="12" y1="53.5" x2="24" y2="53.5" xlink:href="#linear-gradient-8"/></defs><title>construction</title><g id="construction"><rect class="cls-1" x="34" y="38" width="10" height="2"/><rect class="cls-2" x="44" y="32" width="10" height="2"/><rect class="cls-3" x="33" y="34" width="2" height="9"/><rect class="cls-4" x="43" y="29" width="2" height="14"/><rect class="cls-5" x="53" y="27" width="2" height="10"/><rect class="cls-6" x="38" y="36" width="2" height="7"/><rect class="cls-7" x="48" y="30" width="2" height="7"/><path class="cls-8" d="M32,27V19a1,1,0,0,1,2,0v8A1,1,0,0,1,32,27Z"/><path class="cls-9" d="M15,15a1,1,0,0,1-1-1V8a1,1,0,0,1,1-1c2,0,2.46-.13,2.84.45,4.16,6.37,4.35,6.3,4,7S21.38,15,15,15Zm1-2h3.07c-3-4.6-2.43-4-3.07-4Z"/><path class="cls-10" d="M21,52H15a1,1,0,0,1-1-1V19a1,1,0,0,1,1-1h6a1,1,0,0,1,1,1V51A1,1,0,0,1,21,52Zm-5-2h4V20H16Z"/><path class="cls-11" d="M15,51a1,1,0,0,1-.71-1.71l6-6a1,1,0,0,1,1.42,1.42C15.11,51.31,15.57,51,15,51Z"/><path class="cls-12" d="M21,45c-.6,0-.29.13-6.71-6.29a1,1,0,0,1,1.42-1.42l6,6A1,1,0,0,1,21,45Z"/><path class="cls-13" d="M15,39a1,1,0,0,1-.71-1.71l6-6a1,1,0,0,1,1.42,1.42C15.11,39.31,15.57,39,15,39Z"/><path class="cls-14" d="M15,27a1,1,0,0,1-.71-1.71l6-6a1,1,0,0,1,1.42,1.42C15.11,27.31,15.57,27,15,27Z"/><path class="cls-15" d="M21,33c-.6,0-.29.13-6.71-6.29a1,1,0,0,1,1.42-1.42l6,6A1,1,0,0,1,21,33Z"/><polygon class="cls-16" points="53 17 53 19 8 19 8 17 10.92 14 47.17 14 53 17"/><path class="cls-17" d="M44,37v6H32V56H56V37Z"/><rect class="cls-18" x="26" y="27" width="14" height="4"/><rect class="cls-19" x="12" y="51" width="12" height="5"/></g></svg>