<svg xmlns="http://www.w3.org/2000/svg" xmlns:xlink="http://www.w3.org/1999/xlink" viewBox="0 0 64 64"><defs><style>.cls-1{fill:url(#linear-gradient);}.cls-2{fill:url(#linear-gradient-2);}.cls-3{fill:url(#linear-gradient-3);}.cls-4{fill:url(#linear-gradient-4);}.cls-5{fill:url(#linear-gradient-5);}.cls-6{fill:url(#linear-gradient-6);}.cls-7{fill:url(#linear-gradient-7);}.cls-8{fill:url(#linear-gradient-8);}.cls-9{fill:url(#linear-gradient-9);}.cls-10{fill:url(#linear-gradient-10);}.cls-11{fill:url(#linear-gradient-11);}.cls-12{fill:url(#linear-gradient-12);}.cls-13{fill:url(#linear-gradient-13);}</style><linearGradient id="linear-gradient" x1="17.4" y1="32.52" x2="28.03" y2="43.15" gradientUnits="userSpaceOnUse"><stop offset="0" stop-color="#f9f9df"/><stop offset="1" stop-color="#b6bdc6"/></linearGradient><linearGradient id="linear-gradient-2" x1="16.89" y1="36.24" x2="29.04" y2="40.33" xlink:href="#linear-gradient"/><linearGradient id="linear-gradient-3" x1="21.81" y1="42.72" x2="52" y2="42.72" xlink:href="#linear-gradient"/><linearGradient id="linear-gradient-4" x1="21.75" y1="28.26" x2="5.31" y2="28.26" gradientUnits="userSpaceOnUse"><stop offset="0" stop-color="#7bc7e9"/><stop offset="1" stop-color="#3c6db0"/></linearGradient><linearGradient id="linear-gradient-5" x1="14.14" y1="32.35" x2="7.81" y2="32.35" gradientUnits="userSpaceOnUse"><stop offset="0" stop-color="#f0cb49"/><stop offset="1" stop-color="#e17e43"/></linearGradient><linearGradient id="linear-gradient-6" x1="15.5" y1="27" x2="17.5" y2="27" xlink:href="#linear-gradient-5"/><linearGradient id="linear-gradient-7" x1="41.5" y1="28.26" x2="60.01" y2="28.26" xlink:href="#linear-gradient-4"/><linearGradient id="linear-gradient-8" x1="49.48" y1="32.35" x2="56.22" y2="32.35" xlink:href="#linear-gradient-5"/><linearGradient id="linear-gradient-9" x1="46.5" y1="27" x2="48.5" y2="27" xlink:href="#linear-gradient-5"/><linearGradient id="linear-gradient-10" x1="26.18" y1="12.34" x2="37.3" y2="21.25" xlink:href="#linear-gradient"/><linearGradient id="linear-gradient-11" x1="23" y1="8.5" x2="41" y2="8.5" gradientUnits="userSpaceOnUse"><stop offset="0" stop-color="#e17e43"/><stop offset="1" stop-color="#85152e"/></linearGradient><linearGradient id="linear-gradient-12" x1="30.4" y1="17.17" x2="33.27" y2="21.36" gradientUnits="userSpaceOnUse"><stop offset="0" stop-color="#3c6db0"/><stop offset="1" stop-color="#291f51"/></linearGradient><linearGradient id="linear-gradient-13" x1="24" y1="22" x2="40" y2="22" xlink:href="#linear-gradient-12"/></defs><title>deal</title><g id="deal"><path class="cls-1" d="M35.3,43.18c-1.71,0-2.4-1.08-4.19-2.87l-8.42,8.42a3,3,0,0,0-.57,3.44L15,45c-2.63-2.63.63-4.92-3-8.54L21.49,27l.57.57A6.88,6.88,0,0,0,27,29.43c2.39,0,2.8.57,10.55,8.32A3.19,3.19,0,0,1,35.3,43.18Z"/><path class="cls-2" d="M31,42.31c-.49,0-.5-.11-2.43-1.82-3.49,1.56-7.66-.86-6.35-2.32a1,1,0,0,1,1.41-.09,3.94,3.94,0,0,0,4.56.35c.81-.5,1.15.07,3.47,2.13A1,1,0,0,1,31,42.31Z"/><path class="cls-3" d="M49,45,37.86,56.2a9.11,9.11,0,0,1-12.3-.32c-3.08-3.09-3.2-3.21-3.44-3.71a3,3,0,0,1,.57-3.44l8.42-8.42c1.76,1.76,2.51,2.87,4.19,2.87a3.17,3.17,0,0,0,3.16-2.82c.22-2-.77-2.47-6.38-8.08,1.42-1.43,2.5-2.85,4.92-2.85A6.79,6.79,0,0,0,42.51,27L52,36.5C48.38,40.12,51.65,42.4,49,45Z"/><path class="cls-4" d="M22.5,26,11,37.51l-7-7L15.5,19Z"/><path class="cls-5" d="M14.21,30.71l-5,5L7.78,34.3l5-5A1,1,0,0,1,14.21,30.71Z"/><path class="cls-6" d="M17.5,27a1,1,0,0,1-2,0A1,1,0,0,1,17.5,27Z"/><path class="cls-7" d="M60,30.51l-7,7L41.5,26l7-7Z"/><path class="cls-8" d="M54.8,35.72l-5-5a1,1,0,0,1,1.42-1.42l5,5Z"/><path class="cls-9" d="M46.5,27a1,1,0,0,0,2,0A1,1,0,0,0,46.5,27Z"/><rect class="cls-10" x="26" y="12" width="12" height="10"/><polygon class="cls-11" points="32 5 23 12 41 12 32 5"/><rect class="cls-12" x="30" y="17" width="4" height="5"/><rect class="cls-13" x="24" y="21" width="16" height="2"/></g></svg>