<svg xmlns="http://www.w3.org/2000/svg" xmlns:xlink="http://www.w3.org/1999/xlink" viewBox="0 0 64 64"><defs><style>.cls-1{fill:url(#linear-gradient);}.cls-2{fill:url(#linear-gradient-2);}.cls-3{fill:url(#linear-gradient-3);}.cls-4{fill:url(#linear-gradient-4);}.cls-5{fill:url(#linear-gradient-5);}.cls-6{fill:url(#linear-gradient-6);}</style><linearGradient id="linear-gradient" x1="12.23" y1="30.76" x2="36.23" y2="56.26" gradientUnits="userSpaceOnUse"><stop offset="0" stop-color="#f9f9df"/><stop offset="1" stop-color="#b6bdc6"/></linearGradient><linearGradient id="linear-gradient-2" x1="13" y1="9.05" x2="13" y2="55.17" gradientUnits="userSpaceOnUse"><stop offset="0" stop-color="#7bc7e9"/><stop offset="1" stop-color="#3c6db0"/></linearGradient><linearGradient id="linear-gradient-3" x1="22.57" y1="42.72" x2="30.57" y2="54.06" gradientUnits="userSpaceOnUse"><stop offset="0" stop-color="#3c6db0"/><stop offset="1" stop-color="#291f51"/></linearGradient><linearGradient id="linear-gradient-4" x1="53" y1="56" x2="7.99" y2="56" xlink:href="#linear-gradient-2"/><linearGradient id="linear-gradient-5" x1="7.05" y1="34.47" x2="54" y2="34.47" gradientUnits="userSpaceOnUse"><stop offset="0" stop-color="#f0cb49"/><stop offset="1" stop-color="#e17e43"/></linearGradient><linearGradient id="linear-gradient-6" x1="44.01" y1="43.94" x2="54" y2="43.94" xlink:href="#linear-gradient-5"/></defs><title>defisit</title><g id="defisit"><polygon class="cls-1" points="41 36.9 41 56 32 56 32 42 22 42 22 56 13 56 13 25.94 20 32.94 28 24.94 41 36.9"/><path class="cls-2" d="M12,7V57h2V7Z"/><rect class="cls-3" x="22" y="42" width="10" height="14"/><rect class="cls-4" x="7" y="55" width="50" height="2"/><path class="cls-5" d="M53,48.94c-.57,0,1.11,1.38-25-22.62l-7.32,7.32a1,1,0,0,1-1.42,0L7.36,21.71a1,1,0,0,1,1.41-1.42L20,31.52l7.29-7.29a1,1,0,0,1,1.39,0l25,23A1,1,0,0,1,53,48.94Z"/><path class="cls-6" d="M53,48.94H45a1,1,0,0,1,0-2h7v-7a1,1,0,0,1,2,0v8A1,1,0,0,1,53,48.94Z"/></g></svg>