<svg xmlns="http://www.w3.org/2000/svg" xmlns:xlink="http://www.w3.org/1999/xlink" viewBox="0 0 64 64"><defs><style>.cls-1{fill:url(#linear-gradient);}.cls-2{fill:url(#linear-gradient-2);}.cls-3{fill:url(#linear-gradient-3);}.cls-4{fill:url(#linear-gradient-4);}.cls-5{fill:url(#linear-gradient-5);}</style><linearGradient id="linear-gradient" x1="8" y1="53.5" x2="56" y2="53.5" gradientUnits="userSpaceOnUse"><stop offset="0" stop-color="#3c6db0"/><stop offset="1" stop-color="#291f51"/></linearGradient><linearGradient id="linear-gradient-2" x1="15.79" y1="21.83" x2="46.25" y2="52.28" gradientUnits="userSpaceOnUse"><stop offset="0" stop-color="#f9f9df"/><stop offset="1" stop-color="#b6bdc6"/></linearGradient><linearGradient id="linear-gradient-3" x1="6.89" y1="17.63" x2="57.11" y2="17.63" gradientUnits="userSpaceOnUse"><stop offset="0" stop-color="#e17e43"/><stop offset="1" stop-color="#85152e"/></linearGradient><linearGradient id="linear-gradient-4" x1="23.25" y1="27.26" x2="40.64" y2="44.64" gradientUnits="userSpaceOnUse"><stop offset="0" stop-color="#f0cb49"/><stop offset="1" stop-color="#e17e43"/></linearGradient><linearGradient id="linear-gradient-5" x1="23.34" y1="27.34" x2="40.53" y2="44.53" xlink:href="#linear-gradient-4"/></defs><title>discount</title><g id="discount"><rect class="cls-1" x="8" y="51" width="48" height="5"/><path class="cls-2" d="M51,25.07V51H13V25.07L32,12.4Z"/><path class="cls-3" d="M57.11,24.34l-2.22,3.32L32,12.4,9.11,27.66,6.89,24.34,32,7.6Z"/><path class="cls-4" d="M23,46a1,1,0,0,1-.71-1.71l18-18a1,1,0,0,1,1.42,1.42C22.34,47.08,23.62,46,23,46Z"/><path class="cls-5" d="M38.5,46A3.5,3.5,0,1,1,42,42.5,3.5,3.5,0,0,1,38.5,46Zm0-5a1.5,1.5,0,0,0,0,3A1.5,1.5,0,0,0,38.5,41Z"/><path class="cls-5" d="M25.5,33A3.5,3.5,0,1,1,29,29.5,3.5,3.5,0,0,1,25.5,33Zm0-5a1.5,1.5,0,0,0,0,3A1.5,1.5,0,0,0,25.5,28Z"/></g></svg>