<svg xmlns="http://www.w3.org/2000/svg" xmlns:xlink="http://www.w3.org/1999/xlink" viewBox="0 0 64 64"><defs><style>.cls-1{fill:url(#linear-gradient);}.cls-2{fill:url(#linear-gradient-2);}.cls-3{fill:url(#linear-gradient-3);}.cls-4{fill:url(#linear-gradient-4);}.cls-5{fill:url(#linear-gradient-5);}.cls-6{fill:url(#linear-gradient-6);}.cls-7{fill:url(#linear-gradient-7);}.cls-8{fill:url(#linear-gradient-8);}.cls-9{fill:url(#linear-gradient-9);}.cls-10{fill:url(#linear-gradient-10);}.cls-11{fill:url(#linear-gradient-11);}.cls-12{fill:url(#linear-gradient-12);}.cls-13{fill:url(#linear-gradient-13);}</style><linearGradient id="linear-gradient" x1="15" y1="11.88" x2="15" y2="53.13" gradientUnits="userSpaceOnUse"><stop offset="0" stop-color="#7bc7e9"/><stop offset="1" stop-color="#3c6db0"/></linearGradient><linearGradient id="linear-gradient-2" x1="55.5" y1="15" x2="8.56" y2="15" xlink:href="#linear-gradient"/><linearGradient id="linear-gradient-3" x1="55.48" y1="15" x2="8.57" y2="15" xlink:href="#linear-gradient"/><linearGradient id="linear-gradient-4" x1="23.93" y1="23.5" x2="50.8" y2="40.69" gradientUnits="userSpaceOnUse"><stop offset="0" stop-color="#e17e43"/><stop offset="1" stop-color="#85152e"/></linearGradient><linearGradient id="linear-gradient-5" x1="28" y1="11.59" x2="28" y2="24.1" gradientUnits="userSpaceOnUse"><stop offset="0" stop-color="#3c6db0"/><stop offset="1" stop-color="#291f51"/></linearGradient><linearGradient id="linear-gradient-6" x1="48" y1="11.59" x2="48" y2="24.1" xlink:href="#linear-gradient-5"/><linearGradient id="linear-gradient-7" x1="25.27" y1="23.86" x2="49.56" y2="39.43" gradientUnits="userSpaceOnUse"><stop offset="0" stop-color="#f9f9df"/><stop offset="1" stop-color="#b6bdc6"/></linearGradient><linearGradient id="linear-gradient-8" x1="26.73" y1="21.6" x2="50.98" y2="37.14" xlink:href="#linear-gradient-7"/><linearGradient id="linear-gradient-9" x1="28.31" y1="19.11" x2="52.58" y2="34.66" xlink:href="#linear-gradient-7"/><linearGradient id="linear-gradient-10" x1="20.54" y1="31.26" x2="44.79" y2="46.8" xlink:href="#linear-gradient-7"/><linearGradient id="linear-gradient-11" x1="22.11" y1="28.76" x2="46.41" y2="44.34" xlink:href="#linear-gradient-7"/><linearGradient id="linear-gradient-12" x1="23.54" y1="26.45" x2="47.87" y2="42.04" xlink:href="#linear-gradient-7"/><linearGradient id="linear-gradient-13" x1="25.48" y1="23.52" x2="49.75" y2="39.08" xlink:href="#linear-gradient-7"/></defs><title>for sale</title><g id="for_sale" data-name="for sale"><path class="cls-1" d="M12,56V11a3,3,0,0,1,6,0V56Z"/><path class="cls-2" d="M10,13h2v4H10a2,2,0,0,1,0-4Z"/><path class="cls-3" d="M54,17H18V13H54A2,2,0,0,1,54,17Z"/><rect class="cls-4" x="23" y="22" width="30" height="21" rx="3"/><path class="cls-5" d="M27,24V12a1,1,0,0,1,2,0V24A1,1,0,0,1,27,24Z"/><path class="cls-6" d="M47,24V12a1,1,0,0,1,2,0V24A1,1,0,0,1,47,24Z"/><path class="cls-7" d="M33,28H32V27h2a1,1,0,0,0,0-2H31a1,1,0,0,0-1,1v5a1,1,0,0,0,2,0V30h1A1,1,0,0,0,33,28Z"/><path class="cls-8" d="M35,29.5a2.5,2.5,0,0,0,5,0v-2a2.5,2.5,0,0,0-5,0Zm2-2a.5.5,0,0,1,1,0c0,1.82.16,2.5-.5,2.5S37,29.41,37,27.5Z"/><path class="cls-9" d="M45,32c1.28,0,1.24-1.71.35-2.84A2.49,2.49,0,0,0,43.5,25H42a1,1,0,0,0-1,1v5a1,1,0,0,0,2,0V30a1,1,0,0,1,1,1A1,1,0,0,0,45,32Zm-1.5-4H43V27h.5A.5.5,0,0,1,43.5,28Z"/><path class="cls-10" d="M29.5,35H31a1,1,0,0,0,0-2H29.5a2.5,2.5,0,0,0,0,5,.5.5,0,0,1,0,1H28a1,1,0,0,0,0,2h1.5a2.5,2.5,0,0,0,0-5A.5.5,0,0,1,29.5,35Z"/><path class="cls-11" d="M35.5,33A2.5,2.5,0,0,0,33,35.5V40a1,1,0,0,0,2,0V39h1v1a1,1,0,0,0,2,0V35.5A2.5,2.5,0,0,0,35.5,33Zm.5,4H35V35.5a.5.5,0,0,1,1,0Z"/><path class="cls-12" d="M42,39H41V34a1,1,0,0,0-2,0v6a1,1,0,0,0,1,1h2A1,1,0,0,0,42,39Z"/><path class="cls-13" d="M48,39H46V38h1a1,1,0,0,0,0-2H46V35h2a1,1,0,0,0,0-2H45a1,1,0,0,0-1,1v6a1,1,0,0,0,1,1h3A1,1,0,0,0,48,39Z"/></g></svg>