<svg xmlns="http://www.w3.org/2000/svg" xmlns:xlink="http://www.w3.org/1999/xlink" viewBox="0 0 64 64"><defs><style>.cls-1{fill:url(#linear-gradient);}.cls-2{fill:url(#linear-gradient-2);}.cls-3{fill:url(#linear-gradient-3);}.cls-4{fill:url(#linear-gradient-4);}.cls-5{fill:url(#linear-gradient-5);}.cls-6{fill:url(#linear-gradient-6);}</style><linearGradient id="linear-gradient" x1="13.38" y1="28.38" x2="39.41" y2="54.41" gradientUnits="userSpaceOnUse"><stop offset="0" stop-color="#f9f9df"/><stop offset="1" stop-color="#b6bdc6"/></linearGradient><linearGradient id="linear-gradient-2" x1="22.31" y1="42.29" x2="29.89" y2="53.13" gradientUnits="userSpaceOnUse"><stop offset="0" stop-color="#3c6db0"/><stop offset="1" stop-color="#291f51"/></linearGradient><linearGradient id="linear-gradient-3" x1="56.08" y1="56" x2="8.49" y2="56" gradientUnits="userSpaceOnUse"><stop offset="0" stop-color="#7bc7e9"/><stop offset="1" stop-color="#3c6db0"/></linearGradient><linearGradient id="linear-gradient-4" x1="13" y1="8.5" x2="13" y2="56" xlink:href="#linear-gradient-3"/><linearGradient id="linear-gradient-5" x1="7.06" y1="29.47" x2="54.01" y2="29.47" gradientUnits="userSpaceOnUse"><stop offset="0" stop-color="#f0cb49"/><stop offset="1" stop-color="#e17e43"/></linearGradient><linearGradient id="linear-gradient-6" x1="44.01" y1="20" x2="54" y2="20" xlink:href="#linear-gradient-5"/></defs><title>growth</title><g id="growth"><polygon class="cls-1" points="41 28 41 56 32 56 32 42 22 42 22 56 13 56 13 38 27 24 36 33 41 28"/><rect class="cls-2" x="22" y="42" width="10" height="14"/><rect class="cls-3" x="7" y="55" width="50" height="2"/><rect class="cls-4" x="12" y="7" width="2" height="50"/><path class="cls-5" d="M8.06,43.94a1,1,0,0,1-.7-1.71L26.29,23.29a1,1,0,0,1,1.42,0L36,31.59l16.29-16.3a1,1,0,0,1,1.42,1.42l-17,17a1,1,0,0,1-1.42,0L27,25.41C7.17,45.25,8.66,43.94,8.06,43.94Z"/><path class="cls-6" d="M52,24V17H45a1,1,0,0,1,0-2h8a1,1,0,0,1,1,1v8A1,1,0,0,1,52,24Z"/></g></svg>