<svg xmlns="http://www.w3.org/2000/svg" xmlns:xlink="http://www.w3.org/1999/xlink" viewBox="0 0 64 64"><defs><style>.cls-1{fill:url(#linear-gradient);}.cls-2{fill:url(#linear-gradient-2);}.cls-3{fill:url(#linear-gradient-3);}.cls-4{fill:url(#linear-gradient-4);}.cls-5{fill:url(#linear-gradient-5);}.cls-6{fill:url(#linear-gradient-6);}</style><linearGradient id="linear-gradient" x1="8" y1="52.5" x2="25.76" y2="52.5" gradientUnits="userSpaceOnUse"><stop offset="0" stop-color="#3c6db0"/><stop offset="1" stop-color="#291f51"/></linearGradient><linearGradient id="linear-gradient-2" x1="58.17" x2="40.75" xlink:href="#linear-gradient"/><linearGradient id="linear-gradient-3" x1="6.89" y1="16.63" x2="57.11" y2="16.63" gradientUnits="userSpaceOnUse"><stop offset="0" stop-color="#e17e43"/><stop offset="1" stop-color="#85152e"/></linearGradient><linearGradient id="linear-gradient-4" x1="14.61" y1="19.64" x2="43.72" y2="48.75" gradientUnits="userSpaceOnUse"><stop offset="0" stop-color="#f9f9df"/><stop offset="1" stop-color="#b6bdc6"/></linearGradient><linearGradient id="linear-gradient-5" x1="32" y1="22.5" x2="32" y2="51.68" gradientUnits="userSpaceOnUse"><stop offset="0" stop-color="#f0cb49"/><stop offset="1" stop-color="#e17e43"/></linearGradient><linearGradient id="linear-gradient-6" x1="29" y1="50" x2="35" y2="50" gradientUnits="userSpaceOnUse"><stop offset="0" stop-color="#7bc7e9"/><stop offset="1" stop-color="#3c6db0"/></linearGradient></defs><title>house key</title><g id="house_key" data-name="house key"><path class="cls-1" d="M24,50a8,8,0,0,0,1.76,5H8V50Z"/><path class="cls-2" d="M56,50v5H38.24A8,8,0,0,0,40,50Z"/><path class="cls-3" d="M57.11,23.34l-2.22,3.32L32,11.4,9.11,26.66,6.89,23.34,32,6.6Z"/><path class="cls-4" d="M51,24.07V50H40a8,8,0,0,0-4-6.92V39H34a1,1,0,0,1,0-2h2V35H34a1,1,0,0,1,0-2h2V30a2,2,0,0,1,0-4V24l-3.94-4L28,24V43.08A8,8,0,0,0,24,50H13V24.07L32,11.4Z"/><path class="cls-5" d="M32,58c-8.16,0-11-10.85-4-14.92V24l4.06-4L36,24v2a2,2,0,0,0,0,4v3H34a1,1,0,0,0,0,2h2v2H34a1,1,0,0,0,0,2h2v4.08C43.05,47.15,40.16,58,32,58Z"/><circle class="cls-6" cx="32" cy="50" r="3"/></g></svg>