<svg xmlns="http://www.w3.org/2000/svg" xmlns:xlink="http://www.w3.org/1999/xlink" viewBox="0 0 64 64"><defs><style>.cls-1{fill:url(#linear-gradient);}.cls-2{fill:url(#linear-gradient-2);}.cls-3{fill:url(#linear-gradient-3);}.cls-4{fill:url(#linear-gradient-4);}.cls-5{fill:url(#linear-gradient-5);}.cls-6{fill:url(#linear-gradient-6);}.cls-7{fill:url(#linear-gradient-7);}.cls-8{fill:url(#linear-gradient-8);}.cls-9{fill:url(#linear-gradient-9);}</style><linearGradient id="linear-gradient" x1="32" y1="25.67" x2="32" y2="44.29" gradientUnits="userSpaceOnUse"><stop offset="0" stop-color="#f0cb49"/><stop offset="1" stop-color="#e17e43"/></linearGradient><linearGradient id="linear-gradient-2" x1="21" y1="52" x2="43" y2="52" gradientUnits="userSpaceOnUse"><stop offset="0" stop-color="#3c6db0"/><stop offset="1" stop-color="#291f51"/></linearGradient><linearGradient id="linear-gradient-3" x1="19" y1="45" x2="45" y2="45" gradientUnits="userSpaceOnUse"><stop offset="0" stop-color="#7bc7e9"/><stop offset="1" stop-color="#3c6db0"/></linearGradient><linearGradient id="linear-gradient-4" x1="25.02" y1="15.26" x2="38.52" y2="24.43" gradientUnits="userSpaceOnUse"><stop offset="0" stop-color="#f9f9df"/><stop offset="1" stop-color="#b6bdc6"/></linearGradient><linearGradient id="linear-gradient-5" x1="21" y1="9.5" x2="43" y2="9.5" gradientUnits="userSpaceOnUse"><stop offset="0" stop-color="#e17e43"/><stop offset="1" stop-color="#85152e"/></linearGradient><linearGradient id="linear-gradient-6" x1="30" y1="22.5" x2="34" y2="22.5" xlink:href="#linear-gradient-2"/><linearGradient id="linear-gradient-7" x1="22" y1="26" x2="42" y2="26" xlink:href="#linear-gradient-2"/><linearGradient id="linear-gradient-8" x1="35" y1="33.5" x2="45" y2="33.5" xlink:href="#linear-gradient"/><linearGradient id="linear-gradient-9" x1="19" y1="34.5" x2="29" y2="34.5" xlink:href="#linear-gradient"/></defs><title>invest</title><g id="invest"><path class="cls-1" d="M35.29,35.29,33,37.59V26a1,1,0,0,0-2,0V38.59l-2.29-2.3a1,1,0,0,0-1.42,1.42L31,41.41V45a1,1,0,0,0,2,0V40.41l3.71-3.7A1,1,0,0,0,35.29,35.29Z"/><polygon class="cls-2" points="40 59 24 59 21 45 43 45 40 59"/><rect class="cls-3" x="19" y="44" width="26" height="2"/><rect class="cls-4" x="24" y="14" width="16" height="12"/><polygon class="cls-5" points="32 5 21 14 43 14 32 5"/><rect class="cls-6" x="30" y="19" width="4" height="7"/><rect class="cls-7" x="22" y="25" width="20" height="2"/><path class="cls-8" d="M38,37H35a7,7,0,0,1,7-7h3A7,7,0,0,1,38,37Z"/><path class="cls-9" d="M26,38h3a7,7,0,0,0-7-7H19A7,7,0,0,0,26,38Z"/></g></svg>