<svg xmlns="http://www.w3.org/2000/svg" xmlns:xlink="http://www.w3.org/1999/xlink" viewBox="0 0 64 64"><defs><style>.cls-1{fill:url(#linear-gradient);}.cls-2{fill:url(#linear-gradient-2);}.cls-3{fill:url(#linear-gradient-3);}.cls-4{fill:url(#linear-gradient-4);}.cls-5{fill:url(#linear-gradient-5);}.cls-6{fill:url(#linear-gradient-6);}.cls-7{fill:url(#linear-gradient-7);}.cls-8{fill:url(#linear-gradient-8);}.cls-9{fill:url(#linear-gradient-9);}</style><linearGradient id="linear-gradient" x1="32.02" y1="9.88" x2="32.02" y2="43.39" gradientUnits="userSpaceOnUse"><stop offset="0" stop-color="#7bc7e9"/><stop offset="1" stop-color="#3c6db0"/></linearGradient><linearGradient id="linear-gradient-2" x1="26.2" y1="21.35" x2="36.7" y2="29.77" gradientUnits="userSpaceOnUse"><stop offset="0" stop-color="#f9f9df"/><stop offset="1" stop-color="#b6bdc6"/></linearGradient><linearGradient id="linear-gradient-3" x1="23" y1="17.5" x2="41" y2="17.5" gradientUnits="userSpaceOnUse"><stop offset="0" stop-color="#f0cb49"/><stop offset="1" stop-color="#e17e43"/></linearGradient><linearGradient id="linear-gradient-4" x1="30" y1="28.5" x2="34" y2="28.5" gradientUnits="userSpaceOnUse"><stop offset="0" stop-color="#3c6db0"/><stop offset="1" stop-color="#291f51"/></linearGradient><linearGradient id="linear-gradient-5" x1="24" y1="31" x2="40" y2="31" xlink:href="#linear-gradient-4"/><linearGradient id="linear-gradient-6" x1="21" y1="47.24" x2="32" y2="47.24" xlink:href="#linear-gradient-2"/><linearGradient id="linear-gradient-7" x1="32" y1="47.24" x2="43" y2="47.24" xlink:href="#linear-gradient-2"/><linearGradient id="linear-gradient-8" x1="8" y1="43.74" x2="21.63" y2="43.74" xlink:href="#linear-gradient-2"/><linearGradient id="linear-gradient-9" x1="42.37" y1="43.74" x2="56" y2="43.74" xlink:href="#linear-gradient-2"/></defs><title>location</title><g id="location"><path class="cls-1" d="M42.37,38.48A45.24,45.24,0,0,1,32,48a45.24,45.24,0,0,1-10.37-9.52C9.62,23.15,18.85,8,32,8,44.67,8,54.72,22.71,42.37,38.48Z"/><rect class="cls-2" x="26" y="21" width="12" height="10"/><polygon class="cls-3" points="32 14 23 21 41 21 32 14"/><rect class="cls-4" x="30" y="26" width="4" height="5"/><rect class="cls-5" x="24" y="30" width="16" height="2"/><path class="cls-6" d="M32,48v8L21,51l.63-12.52A45.24,45.24,0,0,0,32,48Z"/><path class="cls-7" d="M43,51,32,56V48a45.24,45.24,0,0,0,10.37-9.52Z"/><path class="cls-8" d="M21.63,38.48,21,51,8,55l3-20,6.93-2.52A29.56,29.56,0,0,0,21.63,38.48Z"/><path class="cls-9" d="M56,55,43,51l-.63-12.52a29.56,29.56,0,0,0,3.7-6L53,35Z"/></g></svg>