<svg xmlns="http://www.w3.org/2000/svg" xmlns:xlink="http://www.w3.org/1999/xlink" viewBox="0 0 64 64"><defs><style>.cls-1{fill:url(#linear-gradient);}.cls-2{fill:url(#linear-gradient-2);}.cls-3{fill:url(#linear-gradient-3);}.cls-4{fill:url(#linear-gradient-4);}.cls-5{fill:url(#linear-gradient-5);}.cls-6{fill:url(#linear-gradient-6);}.cls-7{fill:url(#linear-gradient-7);}.cls-8{fill:url(#linear-gradient-8);}</style><linearGradient id="linear-gradient" x1="9.15" y1="43.11" x2="29.4" y2="54.11" gradientUnits="userSpaceOnUse"><stop offset="0" stop-color="#7bc7e9"/><stop offset="1" stop-color="#3c6db0"/></linearGradient><linearGradient id="linear-gradient-2" x1="17.36" y1="46.36" x2="22.02" y2="51.02" gradientUnits="userSpaceOnUse"><stop offset="0" stop-color="#f9f9df"/><stop offset="1" stop-color="#b6bdc6"/></linearGradient><linearGradient id="linear-gradient-3" x1="10.49" y1="29.01" x2="32.99" y2="29.01" gradientUnits="userSpaceOnUse"><stop offset="0" stop-color="#f0cb49"/><stop offset="1" stop-color="#e17e43"/></linearGradient><linearGradient id="linear-gradient-4" x1="34.99" y1="40.99" x2="52.5" y2="40.99" xlink:href="#linear-gradient-3"/><linearGradient id="linear-gradient-5" x1="36.42" y1="16.67" x2="48.21" y2="24.96" xlink:href="#linear-gradient-2"/><linearGradient id="linear-gradient-6" x1="33" y1="11.5" x2="55" y2="11.5" gradientUnits="userSpaceOnUse"><stop offset="0" stop-color="#e17e43"/><stop offset="1" stop-color="#85152e"/></linearGradient><linearGradient id="linear-gradient-7" x1="42.45" y1="21.15" x2="45.11" y2="26.9" gradientUnits="userSpaceOnUse"><stop offset="0" stop-color="#3c6db0"/><stop offset="1" stop-color="#291f51"/></linearGradient><linearGradient id="linear-gradient-8" x1="34" y1="28" x2="54" y2="28" xlink:href="#linear-gradient-7"/></defs><title>mortgage</title><g id="mortgage"><rect class="cls-1" x="8" y="42" width="24" height="14"/><circle class="cls-2" cx="20" cy="49" r="4"/><path class="cls-3" d="M32,19H27A14,14,0,0,0,13,33v2.57l-.79-.8a1,1,0,0,0-1.42,1.42c3.76,3.76,2.7,3.71,6.42,0a1,1,0,0,0-1.42-1.42l-.79.8V33A12,12,0,0,1,27,21h5A1,1,0,0,0,32,19Z"/><path class="cls-4" d="M52.21,33.79c-3.71-3.71-2.65-3.77-6.42,0a1,1,0,0,0,1.42,1.42l.79-.8V37A12,12,0,0,1,36,49a1,1,0,0,0,0,2A14,14,0,0,0,50,37V34.41c.75.75,1,1.09,1.5,1.09A1,1,0,0,0,52.21,33.79Z"/><rect class="cls-5" x="36" y="16" width="16" height="12"/><polygon class="cls-6" points="44 7 33 16 55 16 44 7"/><rect class="cls-7" x="42" y="21" width="4" height="7"/><rect class="cls-8" x="34" y="27" width="20" height="2"/></g></svg>