<svg xmlns="http://www.w3.org/2000/svg" xmlns:xlink="http://www.w3.org/1999/xlink" viewBox="0 0 64 64"><defs><style>.cls-1{fill:url(#linear-gradient);}.cls-2{fill:url(#linear-gradient-2);}.cls-3{fill:url(#linear-gradient-3);}.cls-4{fill:url(#linear-gradient-4);}.cls-5{fill:url(#linear-gradient-5);}.cls-6{fill:url(#linear-gradient-6);}.cls-7{fill:url(#linear-gradient-7);}.cls-8{fill:url(#linear-gradient-8);}.cls-9{fill:url(#linear-gradient-9);}.cls-10{fill:url(#linear-gradient-10);}.cls-11{fill:url(#linear-gradient-11);}.cls-12{fill:url(#linear-gradient-12);}.cls-13{fill:url(#linear-gradient-13);}.cls-14{fill:url(#linear-gradient-14);}.cls-15{fill:url(#linear-gradient-15);}.cls-16{fill:url(#linear-gradient-16);}</style><linearGradient id="linear-gradient" x1="8" y1="39" x2="21" y2="39" gradientUnits="userSpaceOnUse"><stop offset="0" stop-color="#f9f9df"/><stop offset="1" stop-color="#b6bdc6"/></linearGradient><linearGradient id="linear-gradient-2" x1="21.49" y1="13.3" x2="41.74" y2="54.13" xlink:href="#linear-gradient"/><linearGradient id="linear-gradient-3" x1="43" y1="40.5" x2="56" y2="40.5" xlink:href="#linear-gradient"/><linearGradient id="linear-gradient-4" x1="24" y1="8.67" x2="40.37" y2="12.42" gradientUnits="userSpaceOnUse"><stop offset="0" stop-color="#f0cb49"/><stop offset="1" stop-color="#e17e43"/></linearGradient><linearGradient id="linear-gradient-5" x1="26.2" y1="18.2" x2="29.61" y2="21.61" gradientUnits="userSpaceOnUse"><stop offset="0" stop-color="#7bc7e9"/><stop offset="1" stop-color="#3c6db0"/></linearGradient><linearGradient id="linear-gradient-6" x1="34.19" y1="18.19" x2="37.53" y2="21.53" xlink:href="#linear-gradient-5"/><linearGradient id="linear-gradient-7" x1="26.31" y1="27.31" x2="29.88" y2="30.88" xlink:href="#linear-gradient-5"/><linearGradient id="linear-gradient-8" x1="34.23" y1="27.23" x2="37.39" y2="30.39" xlink:href="#linear-gradient-5"/><linearGradient id="linear-gradient-9" x1="26.29" y1="36.29" x2="29.79" y2="39.79" xlink:href="#linear-gradient-5"/><linearGradient id="linear-gradient-10" x1="34.44" y1="36.44" x2="37.5" y2="39.5" xlink:href="#linear-gradient-5"/><linearGradient id="linear-gradient-11" x1="47" y1="38" x2="51" y2="38" xlink:href="#linear-gradient-5"/><linearGradient id="linear-gradient-12" x1="47" y1="47" x2="51" y2="47" xlink:href="#linear-gradient-5"/><linearGradient id="linear-gradient-13" x1="12" y1="29" x2="21" y2="29" gradientUnits="userSpaceOnUse"><stop offset="0" stop-color="#e17e43"/><stop offset="1" stop-color="#85152e"/></linearGradient><linearGradient id="linear-gradient-14" y1="38" y2="38" xlink:href="#linear-gradient-13"/><linearGradient id="linear-gradient-15" y1="47" y2="47" xlink:href="#linear-gradient-13"/><linearGradient id="linear-gradient-16" x1="26.92" y1="45.42" x2="36.52" y2="55.02" gradientUnits="userSpaceOnUse"><stop offset="0" stop-color="#243384"/><stop offset="1" stop-color="#0f274b"/></linearGradient></defs><title>real estate office</title><g id="real_estate_office" data-name="real estate office"><rect class="cls-1" x="8" y="22" width="13" height="34"/><rect class="cls-2" x="21" y="13" width="22" height="43"/><polygon class="cls-3" points="56 56 43 56 43 25 56 32 56 56"/><rect class="cls-4" x="23" y="8" width="18" height="5"/><rect class="cls-5" x="26" y="18" width="4" height="4"/><rect class="cls-6" x="34" y="18" width="4" height="4"/><rect class="cls-7" x="26" y="27" width="4" height="4"/><rect class="cls-8" x="34" y="27" width="4" height="4"/><rect class="cls-9" x="26" y="36" width="4" height="4"/><rect class="cls-10" x="34" y="36" width="4" height="4"/><rect class="cls-11" x="47" y="36" width="4" height="4"/><rect class="cls-12" x="47" y="45" width="4" height="4"/><rect class="cls-13" x="12" y="27" width="9" height="4"/><rect class="cls-14" x="12" y="36" width="9" height="4"/><rect class="cls-15" x="12" y="45" width="9" height="4"/><rect class="cls-16" x="26" y="45" width="12" height="11"/></g></svg>