<svg xmlns="http://www.w3.org/2000/svg" xmlns:xlink="http://www.w3.org/1999/xlink" viewBox="0 0 64 64"><defs><style>.cls-1{fill:url(#linear-gradient);}.cls-2{fill:url(#linear-gradient-2);}.cls-3{fill:url(#linear-gradient-3);}.cls-4{fill:url(#linear-gradient-4);}.cls-5{fill:url(#linear-gradient-5);}.cls-6{fill:url(#linear-gradient-6);}.cls-7{fill:url(#linear-gradient-7);}.cls-8{fill:url(#linear-gradient-8);}.cls-9{fill:url(#linear-gradient-9);}.cls-10{fill:url(#linear-gradient-10);}</style><linearGradient id="linear-gradient" x1="15" y1="11.88" x2="15" y2="53.13" gradientUnits="userSpaceOnUse"><stop offset="0" stop-color="#7bc7e9"/><stop offset="1" stop-color="#3c6db0"/></linearGradient><linearGradient id="linear-gradient-2" x1="55.5" y1="15" x2="8.56" y2="15" xlink:href="#linear-gradient"/><linearGradient id="linear-gradient-3" x1="55.48" y1="15" x2="8.57" y2="15" xlink:href="#linear-gradient"/><linearGradient id="linear-gradient-4" x1="23.93" y1="23.5" x2="50.8" y2="40.69" gradientUnits="userSpaceOnUse"><stop offset="0" stop-color="#e17e43"/><stop offset="1" stop-color="#85152e"/></linearGradient><linearGradient id="linear-gradient-5" x1="28" y1="11.59" x2="28" y2="24.1" gradientUnits="userSpaceOnUse"><stop offset="0" stop-color="#3c6db0"/><stop offset="1" stop-color="#291f51"/></linearGradient><linearGradient id="linear-gradient-6" x1="48" y1="11.59" x2="48" y2="24.1" xlink:href="#linear-gradient-5"/><linearGradient id="linear-gradient-7" x1="25.57" y1="31.82" x2="50.07" y2="39.19" gradientUnits="userSpaceOnUse"><stop offset="0" stop-color="#f9f9df"/><stop offset="1" stop-color="#b6bdc6"/></linearGradient><linearGradient id="linear-gradient-8" x1="26.42" y1="28.91" x2="50.94" y2="36.29" xlink:href="#linear-gradient-7"/><linearGradient id="linear-gradient-9" x1="26.06" y1="30.16" x2="50.56" y2="37.53" xlink:href="#linear-gradient-7"/><linearGradient id="linear-gradient-10" x1="26.92" y1="27.3" x2="51.42" y2="34.67" xlink:href="#linear-gradient-7"/></defs><title>sold</title><g id="sold"><path class="cls-1" d="M12,56V11a3,3,0,0,1,6,0V56Z"/><path class="cls-2" d="M10,13h2v4H10a2,2,0,0,1,0-4Z"/><path class="cls-3" d="M54,17H18V13H54A2,2,0,0,1,54,17Z"/><rect class="cls-4" x="23" y="22" width="30" height="21" rx="3"/><path class="cls-5" d="M27,24V12a1,1,0,0,1,2,0V24A1,1,0,0,1,27,24Z"/><path class="cls-6" d="M47,24V12a1,1,0,0,1,2,0V24A1,1,0,0,1,47,24Z"/><path class="cls-7" d="M29.5,31H31a1,1,0,0,0,0-2H29.5a2.5,2.5,0,0,0,0,5,.5.5,0,0,1,0,1H28a1,1,0,0,0,0,2h1.5a2.5,2.5,0,0,0,0-5A.5.5,0,0,1,29.5,31Z"/><path class="cls-8" d="M42,35H41V30a1,1,0,0,0-2,0v6a1,1,0,0,0,1,1h2A1,1,0,0,0,42,35Z"/><path class="cls-9" d="M35.5,29A2.5,2.5,0,0,0,33,31.5v3a2.5,2.5,0,0,0,5,0v-3A2.5,2.5,0,0,0,35.5,29Zm.5,5.5a.5.5,0,0,1-1,0c0-3-.17-3.5.5-3.5S36,31.52,36,34.5Z"/><path class="cls-10" d="M46.5,29H45a1,1,0,0,0-1,1v6a1,1,0,0,0,1,1h1.5A2.5,2.5,0,0,0,49,34.5v-3A2.5,2.5,0,0,0,46.5,29Zm.5,5.5a.5.5,0,0,1-.5.5H46V31C47.22,31,47,30.77,47,34.5Z"/></g></svg>