<svg xmlns="http://www.w3.org/2000/svg" xmlns:xlink="http://www.w3.org/1999/xlink" viewBox="0 0 64 64"><defs><style>.cls-1{fill:url(#linear-gradient);}.cls-2{fill:url(#linear-gradient-2);}.cls-3{fill:url(#linear-gradient-3);}.cls-4{fill:url(#linear-gradient-4);}.cls-5{fill:url(#linear-gradient-5);}.cls-6{fill:url(#linear-gradient-6);}.cls-7{fill:url(#linear-gradient-7);}.cls-8{fill:url(#linear-gradient-8);}.cls-9{fill:url(#linear-gradient-9);}.cls-10{fill:url(#linear-gradient-10);}</style><linearGradient id="linear-gradient" x1="13.96" y1="32.59" x2="26.44" y2="32.59" gradientTransform="translate(28.96 -4.74) rotate(45)" gradientUnits="userSpaceOnUse"><stop offset="0" stop-color="#f0cb49"/><stop offset="1" stop-color="#e17e43"/></linearGradient><linearGradient id="linear-gradient-2" x1="32.34" y1="14.2" x2="44.83" y2="14.2" gradientTransform="translate(21.34 -23.12) rotate(45)" xlink:href="#linear-gradient"/><linearGradient id="linear-gradient-3" x1="20.32" y1="23.39" x2="38.46" y2="23.39" gradientTransform="translate(25.15 -13.93) rotate(45)" xlink:href="#linear-gradient"/><linearGradient id="linear-gradient-4" x1="18.79" y1="29.05" x2="28.69" y2="29.05" gradientTransform="translate(27.49 -8.28) rotate(45)" gradientUnits="userSpaceOnUse"><stop offset="0" stop-color="#e17e43"/><stop offset="1" stop-color="#85152e"/></linearGradient><linearGradient id="linear-gradient-5" x1="30.1" y1="17.74" x2="40" y2="17.74" gradientTransform="translate(22.81 -19.59) rotate(45)" xlink:href="#linear-gradient-4"/><linearGradient id="linear-gradient-6" x1="20.32" y1="16.74" x2="25.15" y2="16.74" gradientUnits="userSpaceOnUse"><stop offset="0" stop-color="#f9f9df"/><stop offset="1" stop-color="#b6bdc6"/></linearGradient><linearGradient id="linear-gradient-7" x1="33.64" y1="32.94" x2="44.24" y2="32.94" gradientTransform="translate(34.7 -17.89) rotate(45)" xlink:href="#linear-gradient-6"/><linearGradient id="linear-gradient-8" x1="41.12" y1="42.55" x2="55.97" y2="42.55" gradientUnits="userSpaceOnUse"><stop offset="0" stop-color="#3c6db0"/><stop offset="1" stop-color="#291f51"/></linearGradient><linearGradient id="linear-gradient-9" x1="8" y1="54" x2="38" y2="54" xlink:href="#linear-gradient-8"/><linearGradient id="linear-gradient-10" x1="9.99" y1="50" x2="36" y2="50" gradientUnits="userSpaceOnUse"><stop offset="0" stop-color="#7bc7e9"/><stop offset="1" stop-color="#3c6db0"/></linearGradient></defs><title>auction</title><g id="auction"><rect class="cls-1" x="17.2" y="25.59" width="6" height="14" rx="2" transform="translate(-17.12 23.83) rotate(-45)"/><rect class="cls-2" x="35.59" y="7.2" width="6" height="14" rx="2" transform="translate(1.26 31.44) rotate(-45)"/><rect class="cls-3" x="23.39" y="15.39" width="12" height="16" rx="2" transform="translate(-7.93 27.64) rotate(-45)"/><rect class="cls-4" x="21.74" y="24.05" width="4" height="10" transform="translate(-13.59 25.29) rotate(-45)"/><rect class="cls-5" x="33.05" y="12.74" width="4" height="10" transform="translate(-2.28 29.98) rotate(-45)"/><path class="cls-6" d="M23.74,14.91l1.41,1.41-2.83,2.83-1.41-1.41a2,2,0,0,1,2.83-2.83Z"/><rect class="cls-7" x="36.94" y="27.44" width="4" height="11" transform="translate(-11.89 37.18) rotate(-45)"/><path class="cls-8" d="M41.41,38.24l2.83-2.83a1,1,0,0,1,1.42,0l9.43,9.44a3,3,0,0,1-4.24,4.24l-9.44-9.43A1,1,0,0,1,41.41,38.24Z"/><rect class="cls-9" x="8" y="52" width="30" height="4"/><path class="cls-10" d="M36,52c-27.19,0-26-.1-26,0a4,4,0,0,1,4-4H32A4,4,0,0,1,36,52Z"/></g></svg>