<svg xmlns="http://www.w3.org/2000/svg" xmlns:xlink="http://www.w3.org/1999/xlink" viewBox="0 0 64 64"><defs><style>.cls-1{fill:url(#linear-gradient);}.cls-2{fill:url(#linear-gradient-2);}.cls-3{fill:url(#linear-gradient-3);}.cls-4{fill:url(#linear-gradient-4);}.cls-5{fill:url(#linear-gradient-5);}.cls-6{fill:url(#linear-gradient-6);}.cls-7{fill:url(#linear-gradient-7);}.cls-8{fill:url(#linear-gradient-8);}.cls-9{fill:url(#linear-gradient-9);}.cls-10{fill:url(#linear-gradient-10);}.cls-11{fill:url(#linear-gradient-11);}.cls-12{fill:url(#linear-gradient-12);}.cls-13{fill:url(#linear-gradient-13);}.cls-14{fill:url(#linear-gradient-14);}.cls-15{fill:url(#linear-gradient-15);}</style><linearGradient id="linear-gradient" x1="8" y1="45.12" x2="39.68" y2="45.12" gradientUnits="userSpaceOnUse"><stop offset="0" stop-color="#7bc7e9"/><stop offset="1" stop-color="#3c6db0"/></linearGradient><linearGradient id="linear-gradient-2" x1="22" y1="49" x2="30" y2="49" gradientUnits="userSpaceOnUse"><stop offset="0" stop-color="#3c6db0"/><stop offset="1" stop-color="#291f51"/></linearGradient><linearGradient id="linear-gradient-3" x1="26" y1="37.88" x2="26" y2="32" gradientUnits="userSpaceOnUse"><stop offset="0" stop-color="#f9f9df"/><stop offset="1" stop-color="#b6bdc6"/></linearGradient><linearGradient id="linear-gradient-4" x1="25.5" y1="31.88" x2="25.5" y2="13.23" xlink:href="#linear-gradient-3"/><linearGradient id="linear-gradient-5" x1="14" y1="21.5" x2="17" y2="21.5" xlink:href="#linear-gradient-3"/><linearGradient id="linear-gradient-6" x1="37.73" y1="21.5" x2="35.08" y2="21.5" xlink:href="#linear-gradient-3"/><linearGradient id="linear-gradient-7" x1="17.54" y1="9.66" x2="20.04" y2="16.25" gradientUnits="userSpaceOnUse"><stop offset="0" stop-color="#e17e43"/><stop offset="1" stop-color="#85152e"/></linearGradient><linearGradient id="linear-gradient-8" x1="22.89" y1="8.05" x2="31.1" y2="15.75" xlink:href="#linear-gradient-7"/><linearGradient id="linear-gradient-9" x1="22" y1="8.04" x2="22.99" y2="8.04" xlink:href="#linear-gradient-7"/><linearGradient id="linear-gradient-10" x1="22.5" y1="42.38" x2="22.5" y2="35.56" xlink:href="#linear-gradient"/><linearGradient id="linear-gradient-11" x1="29.48" y1="42.38" x2="29.48" y2="35.56" xlink:href="#linear-gradient"/><linearGradient id="linear-gradient-12" x1="46" y1="44.54" x2="46" y2="54.97" xlink:href="#linear-gradient-3"/><linearGradient id="linear-gradient-13" x1="36" y1="40" x2="56" y2="40" gradientUnits="userSpaceOnUse"><stop offset="0" stop-color="#f0cb49"/><stop offset="1" stop-color="#e17e43"/></linearGradient><linearGradient id="linear-gradient-14" x1="44.39" y1="49.3" x2="47.68" y2="55.85" xlink:href="#linear-gradient-2"/><linearGradient id="linear-gradient-15" x1="26" y1="42.58" x2="26" y2="38.73" xlink:href="#linear-gradient-2"/></defs><title>broker</title><g id="broker"><path class="cls-1" d="M36,44h3V56H8l1.5-8.23A16.82,16.82,0,0,1,23.14,34.24L26,38l2.88-3.76a16.83,16.83,0,0,1,10.83,6.82Z"/><path class="cls-2" d="M30,56H22l1.72-12a2.3,2.3,0,0,1,4.56,0Z"/><path class="cls-3" d="M29,31.48c0,2.9.06,2.43-.15,2.76L26,38l-2.83-3.76c-.2-.34-.14.11-.14-2.76A8.89,8.89,0,0,0,29,31.48Z"/><path class="cls-4" d="M35,19v4a9,9,0,0,1-18,0V19H16a6,6,0,0,0,6-6,6,6,0,0,0,6,6Z"/><path class="cls-5" d="M17,19v5h-.5a2.5,2.5,0,1,1,0-5Z"/><path class="cls-6" d="M35,19h.5a2.5,2.5,0,0,1,0,5H35Z"/><path class="cls-7" d="M22,8v5a6,6,0,0,1-6,6V14A6,6,0,0,1,22,8Z"/><path class="cls-8" d="M36,15v4H28a6,6,0,0,1-6-6V8.08C22.63,8,22.82,8,29,8A7,7,0,0,1,36,15Z"/><path class="cls-9" d="M22,8c1.88,0,.63,0,0,.08Z"/><path class="cls-10" d="M26,38l-7,5V35.53a16.88,16.88,0,0,1,4.14-1.29C26.1,38.17,25.9,38,26,38Z"/><path class="cls-11" d="M33,35.53V43c-7.48-5.34-6.93-5-7-5l2.88-3.76A17,17,0,0,1,33,35.53Z"/><rect class="cls-12" x="39" y="44" width="14" height="12"/><path class="cls-13" d="M56,44H36l10-8Z"/><rect class="cls-14" x="44" y="49" width="4" height="7"/><path class="cls-15" d="M29,40.5A2.49,2.49,0,0,1,26.5,43h-1A2.5,2.5,0,0,1,23,40.5c0-.49-.28-.16,3-2.5C29.28,40.34,29,40,29,40.5Z"/></g></svg>