<svg xmlns="http://www.w3.org/2000/svg" xmlns:xlink="http://www.w3.org/1999/xlink" viewBox="0 0 64 64"><defs><style>.cls-1{fill:url(#linear-gradient);}.cls-2{fill:url(#linear-gradient-2);}.cls-3{fill:url(#linear-gradient-3);}.cls-4{fill:url(#linear-gradient-4);}.cls-5{fill:url(#linear-gradient-5);}.cls-6{fill:url(#linear-gradient-6);}</style><linearGradient id="linear-gradient" x1="5.84" y1="12.04" x2="56.47" y2="50.67" gradientUnits="userSpaceOnUse"><stop offset="0" stop-color="#f0cb49"/><stop offset="1" stop-color="#e17e43"/></linearGradient><linearGradient id="linear-gradient-2" x1="10" y1="32" x2="54" y2="32" gradientUnits="userSpaceOnUse"><stop offset="0" stop-color="#f9f9df"/><stop offset="1" stop-color="#b6bdc6"/></linearGradient><linearGradient id="linear-gradient-3" x1="24" y1="26.5" x2="40" y2="26.5" gradientUnits="userSpaceOnUse"><stop offset="0" stop-color="#7bc7e9"/><stop offset="1" stop-color="#3c6db0"/></linearGradient><linearGradient id="linear-gradient-4" x1="30" y1="30.5" x2="34" y2="30.5" gradientUnits="userSpaceOnUse"><stop offset="0" stop-color="#3c6db0"/><stop offset="1" stop-color="#291f51"/></linearGradient><linearGradient id="linear-gradient-5" x1="19" y1="38" x2="45" y2="38" xlink:href="#linear-gradient-4"/><linearGradient id="linear-gradient-6" x1="19" y1="43" x2="45" y2="43" xlink:href="#linear-gradient-4"/></defs><title>certificate</title><g id="certificate"><rect class="cls-1" x="5" y="11" width="54" height="42"/><path class="cls-2" d="M50,48H14a4,4,0,0,0-4-4V20a4,4,0,0,0,4-4H50a4,4,0,0,0,4,4V44A4,4,0,0,0,50,48Z"/><polygon class="cls-3" points="32 20 24 27 27 27 27 33 37 33 37 27 40 27 32 20"/><rect class="cls-4" x="30" y="28" width="4" height="5"/><rect class="cls-5" x="19" y="37" width="26" height="2"/><rect class="cls-6" x="19" y="42" width="26" height="2"/></g></svg>