<svg xmlns="http://www.w3.org/2000/svg" xmlns:xlink="http://www.w3.org/1999/xlink" viewBox="0 0 64 64"><defs><style>.cls-1{fill:url(#linear-gradient);}.cls-2{fill:url(#linear-gradient-2);}.cls-3{fill:url(#linear-gradient-3);}.cls-4{fill:url(#linear-gradient-4);}.cls-5{fill:url(#linear-gradient-5);}.cls-6{fill:url(#linear-gradient-6);}.cls-7{fill:url(#linear-gradient-7);}.cls-8{fill:url(#linear-gradient-8);}</style><linearGradient id="linear-gradient" x1="5" y1="11.5" x2="15" y2="11.5" gradientUnits="userSpaceOnUse"><stop offset="0" stop-color="#7bc7e9"/><stop offset="1" stop-color="#3c6db0"/></linearGradient><linearGradient id="linear-gradient-2" x1="20" y1="53" x2="59" y2="53" xlink:href="#linear-gradient"/><linearGradient id="linear-gradient-3" x1="16.81" y1="9.86" x2="42.44" y2="47.36" gradientUnits="userSpaceOnUse"><stop offset="0" stop-color="#f9f9df"/><stop offset="1" stop-color="#b6bdc6"/></linearGradient><linearGradient id="linear-gradient-4" x1="20" y1="31" x2="44" y2="31" gradientUnits="userSpaceOnUse"><stop offset="0" stop-color="#3c6db0"/><stop offset="1" stop-color="#291f51"/></linearGradient><linearGradient id="linear-gradient-5" y1="36" y2="36" xlink:href="#linear-gradient-4"/><linearGradient id="linear-gradient-6" x1="24" y1="19.5" x2="40" y2="19.5" gradientUnits="userSpaceOnUse"><stop offset="0" stop-color="#e17e43"/><stop offset="1" stop-color="#85152e"/></linearGradient><linearGradient id="linear-gradient-7" x1="53.91" y1="21.48" x2="55.99" y2="39.47" gradientUnits="userSpaceOnUse"><stop offset="0" stop-color="#f0cb49"/><stop offset="1" stop-color="#e17e43"/></linearGradient><linearGradient id="linear-gradient-8" x1="24.66" y1="43.17" y2="43.17" xlink:href="#linear-gradient-6"/></defs><title>contract</title><g id="contract"><path class="cls-1" d="M15,13v2H5V13a5,5,0,0,1,10,0Z"/><path class="cls-2" d="M59,50v1a5,5,0,0,1-5,5H20a5,5,0,0,0,5-5V50Z"/><path class="cls-3" d="M49,13.24V50H25v.8a5.38,5.38,0,0,1-4.14,5.13A5,5,0,0,1,15,51V13a5,5,0,0,0-5-5H43.76A5.25,5.25,0,0,1,49,13.24Z"/><rect class="cls-4" x="20" y="30" width="24" height="2"/><rect class="cls-5" x="20" y="35" width="24" height="2"/><polygon class="cls-6" points="40 20 37 20 37 26 34 26 34 21 30 21 30 26 27 26 27 20 24 20 32 13 40 20"/><path class="cls-7" d="M57,40l-2,3-2-3V22a2,2,0,0,1,4,0Z"/><path class="cls-8" d="M26.45,47.34l-1.79-.89,3.45-6.9A1,1,0,0,1,30,40v2.59l.29-.3a1,1,0,0,1,1.65.36l.35-.36a1,1,0,0,1,1.42,0c.74.74-.1,1.52-.22,1.68.31,0,0,0,6.51,0v2c-6.3,0-7.18.17-8-.53-.33.33-.69.72-1.33.45-.88-.36-.18-.94-.91-.21A1,1,0,0,1,28,45C28,44,28.4,43.43,26.45,47.34Z"/></g></svg>