<svg xmlns="http://www.w3.org/2000/svg" xmlns:xlink="http://www.w3.org/1999/xlink" viewBox="0 0 64 64"><defs><style>.cls-1{fill:url(#linear-gradient);}.cls-2{fill:url(#linear-gradient-2);}.cls-3{fill:url(#linear-gradient-3);}.cls-4{fill:url(#linear-gradient-4);}.cls-5{fill:url(#linear-gradient-5);}.cls-6{fill:url(#linear-gradient-6);}.cls-7{fill:url(#linear-gradient-7);}.cls-8{fill:url(#linear-gradient-8);}</style><linearGradient id="linear-gradient" x1="19.98" y1="32.14" x2="43.98" y2="54.89" gradientUnits="userSpaceOnUse"><stop offset="0" stop-color="#f9f9df"/><stop offset="1" stop-color="#b6bdc6"/></linearGradient><linearGradient id="linear-gradient-2" x1="8" y1="56.5" x2="56" y2="56.5" gradientUnits="userSpaceOnUse"><stop offset="0" stop-color="#3c6db0"/><stop offset="1" stop-color="#291f51"/></linearGradient><linearGradient id="linear-gradient-3" x1="31.42" y1="13.65" x2="20.5" y2="5.07" gradientUnits="userSpaceOnUse"><stop offset="0" stop-color="#f0cb49"/><stop offset="1" stop-color="#e17e43"/></linearGradient><linearGradient id="linear-gradient-4" x1="32" y1="11" x2="45" y2="11" xlink:href="#linear-gradient-3"/><linearGradient id="linear-gradient-5" x1="28.14" y1="35.12" x2="35.22" y2="45.2" gradientUnits="userSpaceOnUse"><stop offset="0" stop-color="#7bc7e9"/><stop offset="1" stop-color="#3c6db0"/></linearGradient><linearGradient id="linear-gradient-6" x1="32" y1="11.17" x2="32" y2="16.63" xlink:href="#linear-gradient-3"/><linearGradient id="linear-gradient-7" x1="31.01" y1="43" x2="37.02" y2="43" xlink:href="#linear-gradient"/><linearGradient id="linear-gradient-8" x1="6.89" y1="25.63" x2="57.11" y2="25.63" gradientUnits="userSpaceOnUse"><stop offset="0" stop-color="#e17e43"/><stop offset="1" stop-color="#85152e"/></linearGradient></defs><title>ecology</title><g id="ecology"><path class="cls-1" d="M51,33.07V54H13V33.07L32,20.4Z"/><rect class="cls-2" x="8" y="54" width="48" height="5"/><path class="cls-3" d="M32,13H27a8,8,0,0,1-8-8h5A8,8,0,0,1,32,13Z"/><path class="cls-4" d="M32,15h5a8,8,0,0,0,8-8H40a8,8,0,0,0-8,8"/><path class="cls-5" d="M38.71,41.29a6.71,6.71,0,0,1-13.42,0C25.29,35.71,32,29,32,29S38.71,35.71,38.71,41.29Z"/><path class="cls-6" d="M31,16V12a1,1,0,0,1,2,0v4A1,1,0,0,1,31,16Z"/><path class="cls-7" d="M32,46a1,1,0,0,1,0-2,3,3,0,0,0,3-3,1,1,0,0,1,1-1C38.28,40,36.65,46,32,46Z"/><path class="cls-8" d="M57.11,32.34l-2.22,3.32L32,20.4,9.11,35.66,6.89,32.34,32,15.6Z"/></g></svg>