<svg xmlns="http://www.w3.org/2000/svg" xmlns:xlink="http://www.w3.org/1999/xlink" viewBox="0 0 64 64"><defs><style>.cls-1{fill:url(#linear-gradient);}.cls-2{fill:url(#linear-gradient-2);}.cls-3{fill:url(#linear-gradient-3);}.cls-4{fill:url(#linear-gradient-4);}.cls-5{fill:url(#linear-gradient-5);}.cls-6{fill:url(#linear-gradient-6);}.cls-7{fill:url(#linear-gradient-7);}.cls-8{fill:url(#linear-gradient-8);}.cls-9{fill:url(#linear-gradient-9);}.cls-10{fill:url(#linear-gradient-10);}.cls-11{fill:url(#linear-gradient-11);}.cls-12{fill:url(#linear-gradient-12);}.cls-13{fill:url(#linear-gradient-13);}.cls-14{fill:url(#linear-gradient-14);}.cls-15{fill:url(#linear-gradient-15);}.cls-16{fill:url(#linear-gradient-16);}.cls-17{fill:url(#linear-gradient-17);}.cls-18{fill:url(#linear-gradient-18);}.cls-19{fill:url(#linear-gradient-19);}.cls-20{fill:url(#linear-gradient-20);}.cls-21{fill:url(#linear-gradient-21);}</style><linearGradient id="linear-gradient" x1="8" y1="45.12" x2="44" y2="45.12" gradientUnits="userSpaceOnUse"><stop offset="0" stop-color="#7bc7e9"/><stop offset="1" stop-color="#3c6db0"/></linearGradient><linearGradient id="linear-gradient-2" x1="22" y1="49" x2="30" y2="49" gradientUnits="userSpaceOnUse"><stop offset="0" stop-color="#3c6db0"/><stop offset="1" stop-color="#291f51"/></linearGradient><linearGradient id="linear-gradient-3" x1="26" y1="37.19" x2="26" y2="32.25" gradientUnits="userSpaceOnUse"><stop offset="0" stop-color="#f9f9df"/><stop offset="1" stop-color="#b6bdc6"/></linearGradient><linearGradient id="linear-gradient-4" x1="26" y1="31.79" x2="26" y2="13.4" xlink:href="#linear-gradient-3"/><linearGradient id="linear-gradient-5" x1="14" y1="21.5" x2="17" y2="21.5" xlink:href="#linear-gradient-3"/><linearGradient id="linear-gradient-6" x1="37.75" y1="21.5" x2="35.31" y2="21.5" xlink:href="#linear-gradient-3"/><linearGradient id="linear-gradient-7" x1="19" y1="38.62" x2="26" y2="38.62" xlink:href="#linear-gradient"/><linearGradient id="linear-gradient-8" x1="25.97" y1="38.62" x2="33" y2="38.62" xlink:href="#linear-gradient"/><linearGradient id="linear-gradient-9" x1="17" y1="21" x2="35" y2="21" gradientUnits="userSpaceOnUse"><stop offset="0" stop-color="#f0cb49"/><stop offset="1" stop-color="#e17e43"/></linearGradient><linearGradient id="linear-gradient-10" x1="20.22" y1="10.52" x2="29.05" y2="18.47" xlink:href="#linear-gradient-9"/><linearGradient id="linear-gradient-11" x1="24.27" y1="8.46" x2="27.13" y2="16.79" gradientUnits="userSpaceOnUse"><stop offset="0" stop-color="#e17e43"/><stop offset="1" stop-color="#85152e"/></linearGradient><linearGradient id="linear-gradient-12" x1="19" y1="11.97" x2="21" y2="11.97" xlink:href="#linear-gradient-11"/><linearGradient id="linear-gradient-13" x1="31" y1="11.97" x2="33" y2="11.97" xlink:href="#linear-gradient-11"/><linearGradient id="linear-gradient-14" x1="42.56" y1="26.98" x2="54.19" y2="49.67" xlink:href="#linear-gradient-3"/><linearGradient id="linear-gradient-15" x1="43.39" y1="23.27" x2="50.1" y2="25.79" xlink:href="#linear-gradient-9"/><linearGradient id="linear-gradient-16" x1="48" y1="15.53" x2="48" y2="21.81" xlink:href="#linear-gradient-11"/><linearGradient id="linear-gradient-17" x1="44.01" y1="32" x2="51.99" y2="32" xlink:href="#linear-gradient"/><linearGradient id="linear-gradient-18" x1="44.01" y1="37" x2="51.99" y2="37" xlink:href="#linear-gradient"/><linearGradient id="linear-gradient-19" x1="44.01" y1="42" x2="51.99" y2="42" xlink:href="#linear-gradient"/><linearGradient id="linear-gradient-20" x1="44.01" y1="47" x2="51.99" y2="47" xlink:href="#linear-gradient"/><linearGradient id="linear-gradient-21" x1="26" y1="42.81" x2="26" y2="38.33" xlink:href="#linear-gradient-2"/></defs><title>engineer</title><g id="engineer"><path class="cls-1" d="M44,56H8l1.5-8.23A16.82,16.82,0,0,1,23.14,34.24L26,38l2.88-3.76a16.73,16.73,0,0,1,7.9,3.66C42.4,42.57,42.59,48.27,44,56Z"/><path class="cls-2" d="M30,56H22l1.72-12a2.3,2.3,0,0,1,4.56,0Z"/><path class="cls-3" d="M29,31.48c0,2.9.06,2.43-.15,2.76L26,38l-2.83-3.76c-.2-.34-.14.11-.14-2.76A8.89,8.89,0,0,0,29,31.48Z"/><path class="cls-4" d="M35,19v4a9,9,0,0,1-18,0V19Z"/><path class="cls-5" d="M17,19v5h-.5a2.5,2.5,0,1,1,0-5Z"/><path class="cls-6" d="M35,19h.5a2.5,2.5,0,0,1,0,5H35Z"/><path class="cls-7" d="M26,38l-7,5V35.53a16.88,16.88,0,0,1,4.14-1.29C26.1,38.17,25.9,38,26,38Z"/><path class="cls-8" d="M33,35.53V43c-7.48-5.34-6.93-5-7-5l2.88-3.76A17,17,0,0,1,33,35.53Z"/><path class="cls-9" d="M35,19a4,4,0,0,1-4,4H21a4,4,0,0,1-4-4Z"/><path class="cls-10" d="M36,17v1a1,1,0,0,1-1,1H17a1,1,0,0,1-1-1V17a9,9,0,0,1,9-9c2.32,0,5.13-.29,8,2.3A9,9,0,0,1,36,17Z"/><rect class="cls-11" x="24" y="8" width="4" height="11"/><path class="cls-12" d="M21,8.94V14a1,1,0,0,1-2,0V10.3Z"/><path class="cls-13" d="M33,10.3V14a1,1,0,0,1-2,0V8.94A8.83,8.83,0,0,1,33,10.3Z"/><path class="cls-14" d="M56,27V56H44c-1.53-8.39-1.63-10.89-4-14.46V27Z"/><rect class="cls-15" x="43" y="23" width="10" height="4"/><rect class="cls-16" x="47" y="15" width="2" height="8"/><path class="cls-17" d="M51,33H45a1,1,0,0,1,0-2h6A1,1,0,0,1,51,33Z"/><path class="cls-18" d="M51,38H45a1,1,0,0,1,0-2h6A1,1,0,0,1,51,38Z"/><path class="cls-19" d="M51,43H45a1,1,0,0,1,0-2h6A1,1,0,0,1,51,43Z"/><path class="cls-20" d="M51,48H45a1,1,0,0,1,0-2h6A1,1,0,0,1,51,48Z"/><path class="cls-21" d="M29,40.5A2.49,2.49,0,0,1,26.5,43h-1A2.5,2.5,0,0,1,23,40.5c0-.49-.28-.16,3-2.5C29.28,40.34,29,40,29,40.5Z"/></g></svg>