<svg xmlns="http://www.w3.org/2000/svg" xmlns:xlink="http://www.w3.org/1999/xlink" viewBox="0 0 64 64"><defs><style>.cls-1{fill:url(#linear-gradient);}.cls-2{fill:url(#linear-gradient-2);}.cls-3{fill:url(#linear-gradient-3);}.cls-4{fill:url(#linear-gradient-4);}.cls-5{fill:url(#linear-gradient-5);}.cls-6{fill:url(#linear-gradient-6);}</style><linearGradient id="linear-gradient" x1="29.5" y1="13" x2="29.5" y2="46.76" gradientUnits="userSpaceOnUse"><stop offset="0" stop-color="#e17e43"/><stop offset="1" stop-color="#85152e"/></linearGradient><linearGradient id="linear-gradient-2" x1="10" y1="34.5" x2="59" y2="34.5" gradientUnits="userSpaceOnUse"><stop offset="0" stop-color="#f0cb49"/><stop offset="1" stop-color="#e17e43"/></linearGradient><linearGradient id="linear-gradient-3" x1="29.55" y1="35.68" x2="42.97" y2="45.26" gradientUnits="userSpaceOnUse"><stop offset="0" stop-color="#f9f9df"/><stop offset="1" stop-color="#b6bdc6"/></linearGradient><linearGradient id="linear-gradient-4" x1="26" y1="30.5" x2="48" y2="30.5" xlink:href="#linear-gradient"/><linearGradient id="linear-gradient-5" x1="35" y1="43.5" x2="39" y2="43.5" gradientUnits="userSpaceOnUse"><stop offset="0" stop-color="#3c6db0"/><stop offset="1" stop-color="#291f51"/></linearGradient><linearGradient id="linear-gradient-6" x1="27" y1="47" x2="47" y2="47" xlink:href="#linear-gradient-5"/></defs><title>folder</title><g id="folder"><path class="cls-1" d="M54,11V21H31l-4-5H15V48A5,5,0,0,1,5,48V11Z"/><path class="cls-2" d="M59,21V48a5,5,0,0,1-5,5H10a5,5,0,0,0,5-5V16H27l4,5Z"/><rect class="cls-3" x="29" y="35" width="16" height="12"/><polygon class="cls-4" points="37 26 26 35 48 35 37 26"/><rect class="cls-5" x="35" y="40" width="4" height="7"/><rect class="cls-6" x="27" y="46" width="20" height="2"/></g></svg>