<svg xmlns="http://www.w3.org/2000/svg" xmlns:xlink="http://www.w3.org/1999/xlink" viewBox="0 0 64 64"><defs><style>.cls-1{fill:url(#linear-gradient);}.cls-2{fill:url(#linear-gradient-2);}.cls-3{fill:url(#linear-gradient-3);}.cls-4{fill:url(#linear-gradient-4);}.cls-5{fill:url(#linear-gradient-5);}.cls-6{fill:url(#linear-gradient-6);}.cls-7{fill:url(#linear-gradient-7);}.cls-8{fill:url(#linear-gradient-8);}.cls-9{fill:url(#linear-gradient-9);}.cls-10{fill:url(#linear-gradient-10);}.cls-11{fill:url(#linear-gradient-11);}.cls-12{fill:url(#linear-gradient-12);}.cls-13{fill:url(#linear-gradient-13);}</style><linearGradient id="linear-gradient" x1="15" y1="11.88" x2="15" y2="53.12" gradientUnits="userSpaceOnUse"><stop offset="0" stop-color="#7bc7e9"/><stop offset="1" stop-color="#3c6db0"/></linearGradient><linearGradient id="linear-gradient-2" x1="55.5" y1="15" x2="8.56" y2="15" xlink:href="#linear-gradient"/><linearGradient id="linear-gradient-3" x1="55.48" y1="15" x2="8.57" y2="15" xlink:href="#linear-gradient"/><linearGradient id="linear-gradient-4" x1="23.93" y1="23.5" x2="50.8" y2="40.69" gradientUnits="userSpaceOnUse"><stop offset="0" stop-color="#e17e43"/><stop offset="1" stop-color="#85152e"/></linearGradient><linearGradient id="linear-gradient-5" x1="28" y1="11.59" x2="28" y2="24.1" gradientUnits="userSpaceOnUse"><stop offset="0" stop-color="#3c6db0"/><stop offset="1" stop-color="#291f51"/></linearGradient><linearGradient id="linear-gradient-6" x1="48" y1="11.59" x2="48" y2="24.1" xlink:href="#linear-gradient-5"/><linearGradient id="linear-gradient-7" x1="25.93" y1="24.5" x2="49.58" y2="38.89" gradientUnits="userSpaceOnUse"><stop offset="0" stop-color="#f9f9df"/><stop offset="1" stop-color="#b6bdc6"/></linearGradient><linearGradient id="linear-gradient-8" x1="27.28" y1="22.28" x2="50.9" y2="36.66" xlink:href="#linear-gradient-7"/><linearGradient id="linear-gradient-9" x1="28.75" y1="19.85" x2="52.39" y2="34.24" xlink:href="#linear-gradient-7"/><linearGradient id="linear-gradient-10" x1="22.69" y1="29.81" x2="46.34" y2="44.19" xlink:href="#linear-gradient-7"/><linearGradient id="linear-gradient-11" x1="20.92" y1="32.72" x2="44.59" y2="47.12" xlink:href="#linear-gradient-7"/><linearGradient id="linear-gradient-12" x1="24.29" y1="27.14" x2="47.95" y2="41.53" xlink:href="#linear-gradient-7"/><linearGradient id="linear-gradient-13" x1="26.28" y1="23.78" x2="49.98" y2="38.2" xlink:href="#linear-gradient-7"/></defs><title>for rent</title><g id="for_rent" data-name="for rent"><path class="cls-1" d="M12,56V11a3,3,0,0,1,6,0V56Z"/><path class="cls-2" d="M10,13h2v4H10a2,2,0,0,1,0-4Z"/><path class="cls-3" d="M54,17H18V13H54A2,2,0,0,1,54,17Z"/><rect class="cls-4" x="23" y="22" width="30" height="21" rx="3"/><path class="cls-5" d="M27,24V12a1,1,0,0,1,2,0V24A1,1,0,0,1,27,24Z"/><path class="cls-6" d="M47,24V12a1,1,0,0,1,2,0V24A1,1,0,0,1,47,24Z"/><path class="cls-7" d="M32,30h1a1,1,0,0,0,0-2H32V27h2a1,1,0,0,0,0-2H31a1,1,0,0,0-1,1v5a1,1,0,0,0,2,0Z"/><path class="cls-8" d="M40,29.5v-2a2.5,2.5,0,0,0-5,0v2a2.5,2.5,0,0,0,5,0Zm-2,0a.5.5,0,0,1-1,0c0-1.82-.16-2.5.5-2.5S38,27.59,38,29.5Z"/><path class="cls-9" d="M45,32c1.28,0,1.24-1.71.35-2.84A2.49,2.49,0,0,0,43.5,25H42a1,1,0,0,0-1,1v5a1,1,0,0,0,2,0V30a1,1,0,0,1,1,1A1,1,0,0,0,45,32Zm-2-5h.5a.5.5,0,0,1,0,1H43Z"/><path class="cls-10" d="M36,35a1,1,0,0,0,0-2H33a1,1,0,0,0-1,1v6a1,1,0,0,0,1,1h3a1,1,0,0,0,0-2H34V38h1a1,1,0,0,0,0-2H34V35Z"/><path class="cls-11" d="M28.5,33H27a1,1,0,0,0-1,1v6a1,1,0,0,0,2,0V38.27A2,2,0,0,1,29,40a1,1,0,0,0,1,1c1.57,0,1.07-2.35.05-3.56A2.49,2.49,0,0,0,28.5,33ZM28,35h.5a.5.5,0,0,1,0,1H28Z"/><path class="cls-12" d="M41,34v1.76l-1.11-2.21A1,1,0,0,0,38,34v6a1,1,0,0,0,2,0V38.24l1.11,2.21A1,1,0,0,0,43,40V34A1,1,0,0,0,41,34Z"/><path class="cls-13" d="M49,33H45a1,1,0,0,0,0,2h1v5a1,1,0,0,0,2,0V35h1A1,1,0,0,0,49,33Z"/></g></svg>