<svg xmlns="http://www.w3.org/2000/svg" xmlns:xlink="http://www.w3.org/1999/xlink" viewBox="0 0 64 64"><defs><style>.cls-1{fill:url(#linear-gradient);}.cls-2{fill:url(#linear-gradient-2);}.cls-3{fill:url(#linear-gradient-3);}.cls-4{fill:url(#linear-gradient-4);}.cls-5{fill:url(#linear-gradient-5);}.cls-6{fill:url(#linear-gradient-6);}.cls-7{fill:url(#linear-gradient-7);}.cls-8{fill:url(#linear-gradient-8);}</style><linearGradient id="linear-gradient" x1="17.86" y1="23.89" x2="43.49" y2="49.53" gradientUnits="userSpaceOnUse"><stop offset="0" stop-color="#f9f9df"/><stop offset="1" stop-color="#b6bdc6"/></linearGradient><linearGradient id="linear-gradient-2" x1="8" y1="53.5" x2="56" y2="53.5" gradientUnits="userSpaceOnUse"><stop offset="0" stop-color="#3c6db0"/><stop offset="1" stop-color="#291f51"/></linearGradient><linearGradient id="linear-gradient-3" x1="19.99" y1="30.63" x2="28.49" y2="47.38" gradientUnits="userSpaceOnUse"><stop offset="0" stop-color="#f0cb49"/><stop offset="1" stop-color="#e17e43"/></linearGradient><linearGradient id="linear-gradient-4" x1="37" y1="37" x2="45" y2="37" gradientUnits="userSpaceOnUse"><stop offset="0" stop-color="#7bc7e9"/><stop offset="1" stop-color="#3c6db0"/></linearGradient><linearGradient id="linear-gradient-5" x1="6.89" y1="17.63" x2="57.11" y2="17.63" gradientUnits="userSpaceOnUse"><stop offset="0" stop-color="#e17e43"/><stop offset="1" stop-color="#85152e"/></linearGradient><linearGradient id="linear-gradient-6" x1="35" y1="44" x2="47" y2="44" xlink:href="#linear-gradient-2"/><linearGradient id="linear-gradient-7" x1="37" y1="37" x2="45" y2="37" xlink:href="#linear-gradient-2"/><linearGradient id="linear-gradient-8" x1="21" y1="40" x2="23" y2="40" xlink:href="#linear-gradient-5"/></defs><title>house</title><g id="house"><path class="cls-1" d="M51,25.07V51H13V25.07L32,12.4Z"/><rect class="cls-2" x="8" y="51" width="48" height="5"/><rect class="cls-3" x="19" y="30" width="12" height="21"/><rect class="cls-4" x="37" y="30" width="8" height="14"/><path class="cls-5" d="M57.11,24.34l-2.22,3.32L32,12.4,9.11,27.66,6.89,24.34,32,7.6Z"/><rect class="cls-6" x="35" y="43" width="12" height="2"/><rect class="cls-7" x="37" y="36" width="8" height="2"/><path class="cls-8" d="M23,40a1,1,0,0,1-2,0A1,1,0,0,1,23,40Z"/></g></svg>