<svg xmlns="http://www.w3.org/2000/svg" xmlns:xlink="http://www.w3.org/1999/xlink" viewBox="0 0 64 64"><defs><style>.cls-1{fill:url(#linear-gradient);}.cls-2{fill:url(#linear-gradient-2);}.cls-3{fill:url(#linear-gradient-3);}.cls-4{fill:url(#linear-gradient-4);}.cls-5{fill:url(#linear-gradient-5);}</style><linearGradient id="linear-gradient" x1="19" y1="36.87" x2="52.62" y2="36.87" gradientUnits="userSpaceOnUse"><stop offset="0" stop-color="#f0cb49"/><stop offset="1" stop-color="#e17e43"/></linearGradient><linearGradient id="linear-gradient-2" x1="8" y1="53.49" x2="56" y2="53.49" gradientUnits="userSpaceOnUse"><stop offset="0" stop-color="#3c6db0"/><stop offset="1" stop-color="#291f51"/></linearGradient><linearGradient id="linear-gradient-3" x1="15.27" y1="21.31" x2="45.39" y2="51.42" gradientUnits="userSpaceOnUse"><stop offset="0" stop-color="#f9f9df"/><stop offset="1" stop-color="#b6bdc6"/></linearGradient><linearGradient id="linear-gradient-4" x1="6.89" y1="17.63" x2="57.11" y2="17.63" gradientUnits="userSpaceOnUse"><stop offset="0" stop-color="#e17e43"/><stop offset="1" stop-color="#85152e"/></linearGradient><linearGradient id="linear-gradient-5" x1="26.1" y1="28.1" x2="38.05" y2="40.05" gradientUnits="userSpaceOnUse"><stop offset="0" stop-color="#7bc7e9"/><stop offset="1" stop-color="#3c6db0"/></linearGradient></defs><title>house search</title><g id="house_search" data-name="house search"><path class="cls-1" d="M52.51,51a2.23,2.23,0,0,1-3.76,1.08L40.5,43.82a13,13,0,1,1,2.84-3.48C52.86,49.86,52.87,49.48,52.51,51Z"/><path class="cls-2" d="M56,51v5H8V51H47.67l1.08,1.08a2.23,2.23,0,0,0,3.17,0C53.26,50.74,50.91,51,56,51Z"/><path class="cls-3" d="M43.34,40.34a13,13,0,1,0-2.84,3.48L47.67,51H13V25.07L32,12.4,51,25.07V48Z"/><path class="cls-4" d="M57.11,24.34l-2.22,3.32L32,12.4,9.11,27.66,6.89,24.34,32,7.6Z"/><circle class="cls-5" cx="32" cy="34" r="9"/></g></svg>