<svg xmlns="http://www.w3.org/2000/svg" xmlns:xlink="http://www.w3.org/1999/xlink" viewBox="0 0 64 64"><defs><style>.cls-1{fill:url(#linear-gradient);}.cls-2{fill:url(#linear-gradient-2);}.cls-3{fill:url(#linear-gradient-3);}.cls-4{fill:url(#linear-gradient-4);}</style><linearGradient id="linear-gradient" x1="8" y1="53.5" x2="56" y2="53.5" gradientUnits="userSpaceOnUse"><stop offset="0" stop-color="#3c6db0"/><stop offset="1" stop-color="#291f51"/></linearGradient><linearGradient id="linear-gradient-2" x1="14.73" y1="20.77" x2="46.3" y2="52.34" gradientUnits="userSpaceOnUse"><stop offset="0" stop-color="#f9f9df"/><stop offset="1" stop-color="#b6bdc6"/></linearGradient><linearGradient id="linear-gradient-3" x1="6.89" y1="17.63" x2="57.11" y2="17.63" gradientUnits="userSpaceOnUse"><stop offset="0" stop-color="#e17e43"/><stop offset="1" stop-color="#85152e"/></linearGradient><linearGradient id="linear-gradient-4" x1="32" y1="24.01" x2="32" y2="46.24" gradientUnits="userSpaceOnUse"><stop offset="0" stop-color="#f0cb49"/><stop offset="1" stop-color="#e17e43"/></linearGradient></defs><title>loan</title><g id="loan"><rect class="cls-1" x="8" y="51" width="48" height="5"/><path class="cls-2" d="M51,25.07V51H13V25.07L32,12.4Z"/><path class="cls-3" d="M57.11,24.34l-2.22,3.32L32,12.4,9.11,27.66,6.89,24.34,32,7.6Z"/><path class="cls-4" d="M32.5,34h-1a2.5,2.5,0,0,1,0-5H36a1,1,0,0,0,0-2H33V24a1,1,0,0,0-2,0v3.05a4.49,4.49,0,0,0,.5,9h1a2.5,2.5,0,0,1,0,5H28a1,1,0,0,0,0,2h3v3a1,1,0,0,0,2,0V43a4.49,4.49,0,0,0-.5-9Z"/></g></svg>