<svg xmlns="http://www.w3.org/2000/svg" xmlns:xlink="http://www.w3.org/1999/xlink" viewBox="0 0 64 64"><defs><style>.cls-1{fill:url(#linear-gradient);}.cls-2{fill:url(#linear-gradient-2);}.cls-3{fill:url(#linear-gradient-3);}.cls-4{fill:url(#linear-gradient-4);}.cls-5{fill:url(#linear-gradient-5);}.cls-6{fill:url(#linear-gradient-6);}.cls-7{fill:url(#linear-gradient-7);}.cls-8{fill:url(#linear-gradient-8);}.cls-9{fill:url(#linear-gradient-9);}.cls-10{fill:url(#linear-gradient-10);}.cls-11{fill:url(#linear-gradient-11);}.cls-12{fill:url(#linear-gradient-12);}</style><linearGradient id="linear-gradient" x1="19.69" y1="17.23" x2="50.2" y2="47.74" gradientUnits="userSpaceOnUse"><stop offset="0" stop-color="#f9f9df"/><stop offset="1" stop-color="#b6bdc6"/></linearGradient><linearGradient id="linear-gradient-2" x1="58" y1="50.5" x2="35" y2="50.5" gradientUnits="userSpaceOnUse"><stop offset="0" stop-color="#3c6db0"/><stop offset="1" stop-color="#291f51"/></linearGradient><linearGradient id="linear-gradient-3" x1="21.38" y1="27.41" x2="30.63" y2="38.25" gradientUnits="userSpaceOnUse"><stop offset="0" stop-color="#f0cb49"/><stop offset="1" stop-color="#e17e43"/></linearGradient><linearGradient id="linear-gradient-4" x1="39" y1="34" x2="47" y2="34" gradientUnits="userSpaceOnUse"><stop offset="0" stop-color="#7bc7e9"/><stop offset="1" stop-color="#3c6db0"/></linearGradient><linearGradient id="linear-gradient-5" x1="8.89" y1="14.63" x2="59.11" y2="14.63" gradientUnits="userSpaceOnUse"><stop offset="0" stop-color="#e17e43"/><stop offset="1" stop-color="#85152e"/></linearGradient><linearGradient id="linear-gradient-6" x1="37" y1="41" x2="49" y2="41" xlink:href="#linear-gradient-2"/><linearGradient id="linear-gradient-7" x1="39" y1="34" x2="47" y2="34" xlink:href="#linear-gradient-2"/><linearGradient id="linear-gradient-8" x1="23" y1="37" x2="25" y2="37" xlink:href="#linear-gradient-5"/><linearGradient id="linear-gradient-9" x1="5" y1="50" x2="35" y2="50" xlink:href="#linear-gradient-4"/><linearGradient id="linear-gradient-10" x1="15" y1="50" x2="25" y2="50" xlink:href="#linear-gradient-2"/><linearGradient id="linear-gradient-11" x1="8.01" y1="45" x2="12.99" y2="45" xlink:href="#linear-gradient-2"/><linearGradient id="linear-gradient-12" x1="27.01" y1="55" x2="31.99" y2="55" xlink:href="#linear-gradient-2"/></defs><title>payment</title><g id="payment"><path class="cls-1" d="M53,22.07V48H35V43a2,2,0,0,0-2-2H15V22.07L34,9.4Z"/><rect class="cls-2" x="35" y="48" width="23" height="5"/><rect class="cls-3" x="21" y="27" width="12" height="14"/><rect class="cls-4" x="39" y="27" width="8" height="14"/><path class="cls-5" d="M59.11,21.34l-2.22,3.32L34,9.4,11.11,24.66,8.89,21.34,34,4.6Z"/><rect class="cls-6" x="37" y="40" width="12" height="2"/><rect class="cls-7" x="39" y="33" width="8" height="2"/><path class="cls-8" d="M25,37a1,1,0,0,1-2,0A1,1,0,0,1,25,37Z"/><rect class="cls-9" x="5" y="41" width="30" height="18" rx="2"/><circle class="cls-10" cx="20" cy="50" r="5"/><path class="cls-11" d="M12,46H9a1,1,0,0,1,0-2h3A1,1,0,0,1,12,46Z"/><path class="cls-12" d="M31,56H28a1,1,0,0,1,0-2h3A1,1,0,0,1,31,56Z"/></g></svg>