<svg xmlns="http://www.w3.org/2000/svg" xmlns:xlink="http://www.w3.org/1999/xlink" viewBox="0 0 64 64"><defs><style>.cls-1{fill:url(#linear-gradient);}.cls-2{fill:url(#linear-gradient-2);}.cls-3{fill:url(#linear-gradient-3);}.cls-4{fill:url(#linear-gradient-4);}.cls-5{fill:url(#linear-gradient-5);}.cls-6{fill:url(#linear-gradient-6);}.cls-7{fill:url(#linear-gradient-7);}.cls-8{fill:url(#linear-gradient-8);}.cls-9{fill:url(#linear-gradient-9);}.cls-10{fill:url(#linear-gradient-10);}</style><linearGradient id="linear-gradient" x1="15.9" y1="20.93" x2="42.39" y2="47.42" gradientUnits="userSpaceOnUse"><stop offset="0" stop-color="#f9f9df"/><stop offset="1" stop-color="#b6bdc6"/></linearGradient><linearGradient id="linear-gradient-2" x1="6" y1="50.5" x2="41.81" y2="50.5" gradientUnits="userSpaceOnUse"><stop offset="0" stop-color="#3c6db0"/><stop offset="1" stop-color="#291f51"/></linearGradient><linearGradient id="linear-gradient-3" x1="23" y1="27.5" x2="23" y2="47.18" gradientUnits="userSpaceOnUse"><stop offset="0" stop-color="#f0cb49"/><stop offset="1" stop-color="#e17e43"/></linearGradient><linearGradient id="linear-gradient-4" x1="35" y1="34" x2="43" y2="34" gradientUnits="userSpaceOnUse"><stop offset="0" stop-color="#7bc7e9"/><stop offset="1" stop-color="#3c6db0"/></linearGradient><linearGradient id="linear-gradient-5" x1="4.89" y1="14.63" x2="55.11" y2="14.63" gradientUnits="userSpaceOnUse"><stop offset="0" stop-color="#e17e43"/><stop offset="1" stop-color="#85152e"/></linearGradient><linearGradient id="linear-gradient-6" x1="33" y1="41" x2="40" y2="41" xlink:href="#linear-gradient-2"/><linearGradient id="linear-gradient-7" x1="35" y1="34" x2="43" y2="34" xlink:href="#linear-gradient-2"/><linearGradient id="linear-gradient-8" x1="19" y1="37" x2="21" y2="37" xlink:href="#linear-gradient-5"/><linearGradient id="linear-gradient-9" x1="40" y1="49" x2="56" y2="49" xlink:href="#linear-gradient-3"/><linearGradient id="linear-gradient-10" x1="42.99" y1="47.49" x2="53.01" y2="47.49" xlink:href="#linear-gradient-2"/></defs><title>real estate insurance</title><g id="real_estate_insurance" data-name="real estate insurance"><path class="cls-1" d="M49,22.07V39H40c0,7.63,0,7.61.13,9H11V22.07L30,9.4Z"/><path class="cls-2" d="M41.81,53H6V48H40.13A14.22,14.22,0,0,0,41.81,53Z"/><rect class="cls-3" x="17" y="27" width="12" height="21"/><polygon class="cls-4" points="43 27 43 39 40 39 40 41 35 41 35 27 43 27"/><path class="cls-5" d="M55.11,21.34l-2.22,3.32L30,9.4,7.11,24.66,4.89,21.34,30,4.6Z"/><rect class="cls-6" x="33" y="40" width="7" height="2"/><rect class="cls-7" x="35" y="33" width="8" height="2"/><path class="cls-8" d="M21,37a1,1,0,0,1-2,0A1,1,0,0,1,21,37Z"/><path class="cls-9" d="M56,39v7.28A14.31,14.31,0,0,1,48.25,59,14.31,14.31,0,0,1,40,46V39Z"/><path class="cls-10" d="M47,51c-.55,0-.43,0-3.71-3.29a1,1,0,0,1,1.42-1.42L47,48.59l4.29-4.3a1,1,0,0,1,1.42,1.42C47.47,50.94,47.59,51,47,51Z"/></g></svg>