<svg xmlns="http://www.w3.org/2000/svg" xmlns:xlink="http://www.w3.org/1999/xlink" viewBox="0 0 64 64"><defs><style>.cls-1{fill:url(#linear-gradient);}.cls-2{fill:url(#linear-gradient-2);}.cls-3{fill:url(#linear-gradient-3);}.cls-4{fill:url(#linear-gradient-4);}.cls-5{fill:url(#linear-gradient-5);}.cls-6{fill:url(#linear-gradient-6);}.cls-7{fill:url(#linear-gradient-7);}.cls-8{fill:url(#linear-gradient-8);}.cls-9{fill:url(#linear-gradient-9);}.cls-10{fill:url(#linear-gradient-10);}.cls-11{fill:url(#linear-gradient-11);}</style><linearGradient id="linear-gradient" x1="5" y1="35" x2="59" y2="35" gradientUnits="userSpaceOnUse"><stop offset="0" stop-color="#f9f9df"/><stop offset="1" stop-color="#b6bdc6"/></linearGradient><linearGradient id="linear-gradient-2" x1="5" y1="15" x2="59" y2="15" gradientUnits="userSpaceOnUse"><stop offset="0" stop-color="#f0cb49"/><stop offset="1" stop-color="#e17e43"/></linearGradient><linearGradient id="linear-gradient-3" x1="8.01" y1="15" x2="10.99" y2="15" gradientUnits="userSpaceOnUse"><stop offset="0" stop-color="#7bc7e9"/><stop offset="1" stop-color="#3c6db0"/></linearGradient><linearGradient id="linear-gradient-4" x1="13.01" x2="15.99" xlink:href="#linear-gradient-3"/><linearGradient id="linear-gradient-5" x1="18.01" x2="20.99" xlink:href="#linear-gradient-3"/><linearGradient id="linear-gradient-6" x1="10" y1="30.5" x2="26" y2="30.5" gradientUnits="userSpaceOnUse"><stop offset="0" stop-color="#e17e43"/><stop offset="1" stop-color="#85152e"/></linearGradient><linearGradient id="linear-gradient-7" x1="31" y1="27" x2="53" y2="27" gradientUnits="userSpaceOnUse"><stop offset="0" stop-color="#3c6db0"/><stop offset="1" stop-color="#291f51"/></linearGradient><linearGradient id="linear-gradient-8" y1="32" y2="32" xlink:href="#linear-gradient-7"/><linearGradient id="linear-gradient-9" y1="37" x2="48" y2="37" xlink:href="#linear-gradient-7"/><linearGradient id="linear-gradient-10" x1="45.17" y1="43.41" x2="51.88" y2="46.62" xlink:href="#linear-gradient-3"/><linearGradient id="linear-gradient-11" x1="31.7" y1="43.5" x2="39.27" y2="46.49" xlink:href="#linear-gradient-3"/></defs><title>website</title><g id="website"><polygon class="cls-1" points="59 17 59 53 5 53 5 19 23 19 26 17 59 17"/><polygon class="cls-2" points="59 11 59 17 26 17 23 19 5 19 5 11 59 11"/><path class="cls-3" d="M10,16H9a1,1,0,0,1,0-2h1A1,1,0,0,1,10,16Z"/><path class="cls-4" d="M15,16H14a1,1,0,0,1,0-2h1A1,1,0,0,1,15,16Z"/><path class="cls-5" d="M20,16H19a1,1,0,0,1,0-2h1A1,1,0,0,1,20,16Z"/><polygon class="cls-6" points="26 31 23 31 23 37 20 37 20 32 16 32 16 37 13 37 13 31 10 31 18 24 26 31"/><rect class="cls-7" x="31" y="26" width="22" height="2"/><rect class="cls-8" x="31" y="31" width="22" height="2"/><rect class="cls-9" x="31" y="36" width="17" height="2"/><path class="cls-10" d="M51,47H46a2,2,0,0,1,0-4h5A2,2,0,0,1,51,47Z"/><path class="cls-11" d="M38,47H33a2,2,0,0,1,0-4h5A2,2,0,0,1,38,47Z"/></g></svg>